<?xml version="1.0" encoding="utf-8" standalone="no"?>
<!DOCTYPE svg PUBLIC "-//W3C//DTD SVG 1.1//EN"
  "http://www.w3.org/Graphics/SVG/1.1/DTD/svg11.dtd">
<svg height="432pt" version="1.1" viewBox="0 0 576 432" width="576pt" xmlns="http://www.w3.org/2000/svg" xmlns:xlink="http://www.w3.org/1999/xlink">
 <metadata>
  <rdf:RDF xmlns:cc="http://creativecommons.org/ns#" xmlns:dc="http://purl.org/dc/elements/1.1/" xmlns:rdf="http://www.w3.org/1999/02/22-rdf-syntax-ns#">
   <cc:Work>
    <dc:type rdf:resource="http://purl.org/dc/dcmitype/StillImage"/>
    <dc:date>2021-09-08T20:38:43.252722</dc:date>
    <dc:format>image/svg+xml</dc:format>
    <dc:creator>
     <cc:Agent>
      <dc:title>Matplotlib v3.4.3, https://matplotlib.org/</dc:title>
     </cc:Agent>
    </dc:creator>
   </cc:Work>
  </rdf:RDF>
 </metadata>
 <defs>
  <style type="text/css">*{stroke-linecap:butt;stroke-linejoin:round;}</style>
 </defs>
 <g id="figure_1">
  <g id="patch_1">
   <path d="M 0 432 
L 576 432 
L 576 0 
L 0 0 
z
" style="fill:#ffffff;"/>
  </g>
  <g id="axes_1">
   <g id="patch_2">
    <path d="M 72 384.48 
L 518.4 384.48 
L 518.4 51.84 
L 72 51.84 
z
" style="fill:#ffffff;"/>
   </g>
   <g id="matplotlib.axis_1">
    <g id="xtick_1">
     <g id="line2d_1">
      <defs>
       <path d="M 0 0 
L 0 3.5 
" id="m3bdd7a8519" style="stroke:#000000;stroke-width:0.8;"/>
      </defs>
      <g>
       <use style="stroke:#000000;stroke-width:0.8;" x="92.290909" xlink:href="#m3bdd7a8519" y="384.48"/>
      </g>
     </g>
     <g id="text_1">
      <!-- $\mathdefault{10^{2}}$ -->
      <g transform="translate(83.62074 400.474028)scale(0.13 -0.13)">
       <defs>
        <path d="M 1702 4058 
C 1702 4192 1696 4192 1606 4192 
C 1357 3916 979 3827 621 3827 
C 602 3827 570 3827 563 3808 
C 557 3795 557 3782 557 3648 
C 755 3648 1088 3686 1344 3839 
L 1344 461 
C 1344 236 1331 160 781 160 
L 589 160 
L 589 0 
C 896 0 1216 0 1523 0 
C 1830 0 2150 0 2458 0 
L 2458 160 
L 2266 160 
C 1715 160 1702 230 1702 458 
L 1702 4058 
z
" id="CMR17-31" transform="scale(0.015625)"/>
        <path d="M 2688 2025 
C 2688 2416 2682 3080 2413 3591 
C 2176 4039 1798 4198 1466 4198 
C 1158 4198 768 4058 525 3597 
C 269 3118 243 2524 243 2025 
C 243 1661 250 1106 448 619 
C 723 -39 1216 -128 1466 -128 
C 1760 -128 2208 -7 2470 600 
C 2662 1042 2688 1559 2688 2025 
z
M 1466 -26 
C 1056 -26 813 325 723 812 
C 653 1188 653 1738 653 2096 
C 653 2588 653 2997 736 3387 
C 858 3929 1216 4096 1466 4096 
C 1728 4096 2067 3923 2189 3400 
C 2272 3036 2278 2607 2278 2096 
C 2278 1680 2278 1169 2202 792 
C 2067 95 1690 -26 1466 -26 
z
" id="CMR17-30" transform="scale(0.015625)"/>
        <path d="M 2669 989 
L 2554 989 
C 2490 536 2438 459 2413 420 
C 2381 369 1920 369 1830 369 
L 602 369 
C 832 619 1280 1072 1824 1597 
C 2214 1967 2669 2402 2669 3035 
C 2669 3790 2067 4224 1395 4224 
C 691 4224 262 3604 262 3030 
C 262 2780 448 2748 525 2748 
C 589 2748 781 2787 781 3010 
C 781 3207 614 3264 525 3264 
C 486 3264 448 3258 422 3245 
C 544 3790 915 4058 1306 4058 
C 1862 4058 2227 3617 2227 3035 
C 2227 2479 1901 2000 1536 1584 
L 262 146 
L 262 0 
L 2515 0 
L 2669 989 
z
" id="CMR17-32" transform="scale(0.015625)"/>
       </defs>
       <use transform="scale(0.996264)" xlink:href="#CMR17-31"/>
       <use transform="translate(45.690477 0)scale(0.996264)" xlink:href="#CMR17-30"/>
       <use transform="translate(91.380954 36.153639)scale(0.697382)" xlink:href="#CMR17-32"/>
      </g>
     </g>
    </g>
    <g id="xtick_2">
     <g id="line2d_2">
      <g>
       <use style="stroke:#000000;stroke-width:0.8;" x="227.100791" xlink:href="#m3bdd7a8519" y="384.48"/>
      </g>
     </g>
     <g id="text_2">
      <!-- $\mathdefault{10^{3}}$ -->
      <g transform="translate(218.430622 400.474028)scale(0.13 -0.13)">
       <defs>
        <path d="M 1414 2157 
C 1984 2157 2234 1662 2234 1090 
C 2234 320 1824 25 1453 25 
C 1114 25 563 194 390 693 
C 422 680 454 680 486 680 
C 640 680 755 782 755 948 
C 755 1133 614 1216 486 1216 
C 378 1216 211 1165 211 926 
C 211 335 787 -128 1466 -128 
C 2176 -128 2720 430 2720 1085 
C 2720 1707 2208 2157 1600 2227 
C 2086 2328 2554 2756 2554 3329 
C 2554 3820 2048 4179 1472 4179 
C 890 4179 378 3829 378 3329 
C 378 3110 544 3072 627 3072 
C 762 3072 877 3155 877 3321 
C 877 3486 762 3569 627 3569 
C 602 3569 570 3569 544 3557 
C 730 3959 1235 4032 1459 4032 
C 1683 4032 2106 3925 2106 3320 
C 2106 3143 2080 2828 1862 2550 
C 1670 2304 1453 2304 1242 2284 
C 1210 2284 1062 2269 1037 2269 
C 992 2263 966 2257 966 2208 
C 966 2163 973 2157 1101 2157 
L 1414 2157 
z
" id="CMR17-33" transform="scale(0.015625)"/>
       </defs>
       <use transform="scale(0.996264)" xlink:href="#CMR17-31"/>
       <use transform="translate(45.690477 0)scale(0.996264)" xlink:href="#CMR17-30"/>
       <use transform="translate(91.380954 36.153639)scale(0.697382)" xlink:href="#CMR17-33"/>
      </g>
     </g>
    </g>
    <g id="xtick_3">
     <g id="line2d_3">
      <g>
       <use style="stroke:#000000;stroke-width:0.8;" x="361.910673" xlink:href="#m3bdd7a8519" y="384.48"/>
      </g>
     </g>
     <g id="text_3">
      <!-- $\mathdefault{10^{4}}$ -->
      <g transform="translate(353.240504 400.474028)scale(0.13 -0.13)">
       <defs>
        <path d="M 2150 4122 
C 2150 4256 2144 4256 2029 4256 
L 128 1254 
L 128 1088 
L 1779 1088 
L 1779 457 
C 1779 224 1766 160 1318 160 
L 1197 160 
L 1197 0 
C 1402 0 1747 0 1965 0 
C 2182 0 2528 0 2733 0 
L 2733 160 
L 2611 160 
C 2163 160 2150 224 2150 457 
L 2150 1088 
L 2803 1088 
L 2803 1254 
L 2150 1254 
L 2150 4122 
z
M 1798 3703 
L 1798 1254 
L 256 1254 
L 1798 3703 
z
" id="CMR17-34" transform="scale(0.015625)"/>
       </defs>
       <use transform="scale(0.996264)" xlink:href="#CMR17-31"/>
       <use transform="translate(45.690477 0)scale(0.996264)" xlink:href="#CMR17-30"/>
       <use transform="translate(91.380954 36.153639)scale(0.697382)" xlink:href="#CMR17-34"/>
      </g>
     </g>
    </g>
    <g id="xtick_4">
     <g id="line2d_4">
      <g>
       <use style="stroke:#000000;stroke-width:0.8;" x="496.720555" xlink:href="#m3bdd7a8519" y="384.48"/>
      </g>
     </g>
     <g id="text_4">
      <!-- $\mathdefault{10^{5}}$ -->
      <g transform="translate(488.050386 400.474028)scale(0.13 -0.13)">
       <defs>
        <path d="M 730 3692 
C 794 3666 1056 3584 1325 3584 
C 1920 3584 2246 3911 2432 4100 
C 2432 4157 2432 4192 2394 4192 
C 2387 4192 2374 4192 2323 4163 
C 2099 4058 1837 3973 1517 3973 
C 1325 3973 1037 3999 723 4139 
C 653 4171 640 4171 634 4171 
C 602 4171 595 4164 595 4037 
L 595 2203 
C 595 2089 595 2057 659 2057 
C 691 2057 704 2070 736 2114 
C 941 2401 1222 2522 1542 2522 
C 1766 2522 2246 2382 2246 1289 
C 2246 1085 2246 715 2054 421 
C 1894 159 1645 25 1370 25 
C 947 25 518 320 403 814 
C 429 807 480 795 506 795 
C 589 795 749 840 749 1038 
C 749 1210 627 1280 506 1280 
C 358 1280 262 1190 262 1011 
C 262 454 704 -128 1382 -128 
C 2042 -128 2669 440 2669 1264 
C 2669 2030 2170 2624 1549 2624 
C 1222 2624 947 2503 730 2274 
L 730 3692 
z
" id="CMR17-35" transform="scale(0.015625)"/>
       </defs>
       <use transform="scale(0.996264)" xlink:href="#CMR17-31"/>
       <use transform="translate(45.690477 0)scale(0.996264)" xlink:href="#CMR17-30"/>
       <use transform="translate(91.380954 36.153639)scale(0.697382)" xlink:href="#CMR17-35"/>
      </g>
     </g>
    </g>
    <g id="xtick_5">
     <g id="line2d_5">
      <defs>
       <path d="M 0 0 
L 0 2 
" id="mafd9205f27" style="stroke:#000000;stroke-width:0.6;"/>
      </defs>
      <g>
       <use style="stroke:#000000;stroke-width:0.6;" x="79.226482" xlink:href="#mafd9205f27" y="384.48"/>
      </g>
     </g>
    </g>
    <g id="xtick_6">
     <g id="line2d_6">
      <g>
       <use style="stroke:#000000;stroke-width:0.6;" x="86.122347" xlink:href="#mafd9205f27" y="384.48"/>
      </g>
     </g>
    </g>
    <g id="xtick_7">
     <g id="line2d_7">
      <g>
       <use style="stroke:#000000;stroke-width:0.6;" x="132.872727" xlink:href="#mafd9205f27" y="384.48"/>
      </g>
     </g>
    </g>
    <g id="xtick_8">
     <g id="line2d_8">
      <g>
       <use style="stroke:#000000;stroke-width:0.6;" x="156.611569" xlink:href="#mafd9205f27" y="384.48"/>
      </g>
     </g>
    </g>
    <g id="xtick_9">
     <g id="line2d_9">
      <g>
       <use style="stroke:#000000;stroke-width:0.6;" x="173.454545" xlink:href="#mafd9205f27" y="384.48"/>
      </g>
     </g>
    </g>
    <g id="xtick_10">
     <g id="line2d_10">
      <g>
       <use style="stroke:#000000;stroke-width:0.6;" x="186.518973" xlink:href="#mafd9205f27" y="384.48"/>
      </g>
     </g>
    </g>
    <g id="xtick_11">
     <g id="line2d_11">
      <g>
       <use style="stroke:#000000;stroke-width:0.6;" x="197.193387" xlink:href="#mafd9205f27" y="384.48"/>
      </g>
     </g>
    </g>
    <g id="xtick_12">
     <g id="line2d_12">
      <g>
       <use style="stroke:#000000;stroke-width:0.6;" x="206.218476" xlink:href="#mafd9205f27" y="384.48"/>
      </g>
     </g>
    </g>
    <g id="xtick_13">
     <g id="line2d_13">
      <g>
       <use style="stroke:#000000;stroke-width:0.6;" x="214.036364" xlink:href="#mafd9205f27" y="384.48"/>
      </g>
     </g>
    </g>
    <g id="xtick_14">
     <g id="line2d_14">
      <g>
       <use style="stroke:#000000;stroke-width:0.6;" x="220.932229" xlink:href="#mafd9205f27" y="384.48"/>
      </g>
     </g>
    </g>
    <g id="xtick_15">
     <g id="line2d_15">
      <g>
       <use style="stroke:#000000;stroke-width:0.6;" x="267.682609" xlink:href="#mafd9205f27" y="384.48"/>
      </g>
     </g>
    </g>
    <g id="xtick_16">
     <g id="line2d_16">
      <g>
       <use style="stroke:#000000;stroke-width:0.6;" x="291.421451" xlink:href="#mafd9205f27" y="384.48"/>
      </g>
     </g>
    </g>
    <g id="xtick_17">
     <g id="line2d_17">
      <g>
       <use style="stroke:#000000;stroke-width:0.6;" x="308.264427" xlink:href="#mafd9205f27" y="384.48"/>
      </g>
     </g>
    </g>
    <g id="xtick_18">
     <g id="line2d_18">
      <g>
       <use style="stroke:#000000;stroke-width:0.6;" x="321.328855" xlink:href="#mafd9205f27" y="384.48"/>
      </g>
     </g>
    </g>
    <g id="xtick_19">
     <g id="line2d_19">
      <g>
       <use style="stroke:#000000;stroke-width:0.6;" x="332.003269" xlink:href="#mafd9205f27" y="384.48"/>
      </g>
     </g>
    </g>
    <g id="xtick_20">
     <g id="line2d_20">
      <g>
       <use style="stroke:#000000;stroke-width:0.6;" x="341.028358" xlink:href="#mafd9205f27" y="384.48"/>
      </g>
     </g>
    </g>
    <g id="xtick_21">
     <g id="line2d_21">
      <g>
       <use style="stroke:#000000;stroke-width:0.6;" x="348.846246" xlink:href="#mafd9205f27" y="384.48"/>
      </g>
     </g>
    </g>
    <g id="xtick_22">
     <g id="line2d_22">
      <g>
       <use style="stroke:#000000;stroke-width:0.6;" x="355.742111" xlink:href="#mafd9205f27" y="384.48"/>
      </g>
     </g>
    </g>
    <g id="xtick_23">
     <g id="line2d_23">
      <g>
       <use style="stroke:#000000;stroke-width:0.6;" x="402.492491" xlink:href="#mafd9205f27" y="384.48"/>
      </g>
     </g>
    </g>
    <g id="xtick_24">
     <g id="line2d_24">
      <g>
       <use style="stroke:#000000;stroke-width:0.6;" x="426.231333" xlink:href="#mafd9205f27" y="384.48"/>
      </g>
     </g>
    </g>
    <g id="xtick_25">
     <g id="line2d_25">
      <g>
       <use style="stroke:#000000;stroke-width:0.6;" x="443.074309" xlink:href="#mafd9205f27" y="384.48"/>
      </g>
     </g>
    </g>
    <g id="xtick_26">
     <g id="line2d_26">
      <g>
       <use style="stroke:#000000;stroke-width:0.6;" x="456.138737" xlink:href="#mafd9205f27" y="384.48"/>
      </g>
     </g>
    </g>
    <g id="xtick_27">
     <g id="line2d_27">
      <g>
       <use style="stroke:#000000;stroke-width:0.6;" x="466.813151" xlink:href="#mafd9205f27" y="384.48"/>
      </g>
     </g>
    </g>
    <g id="xtick_28">
     <g id="line2d_28">
      <g>
       <use style="stroke:#000000;stroke-width:0.6;" x="475.83824" xlink:href="#mafd9205f27" y="384.48"/>
      </g>
     </g>
    </g>
    <g id="xtick_29">
     <g id="line2d_29">
      <g>
       <use style="stroke:#000000;stroke-width:0.6;" x="483.656128" xlink:href="#mafd9205f27" y="384.48"/>
      </g>
     </g>
    </g>
    <g id="xtick_30">
     <g id="line2d_30">
      <g>
       <use style="stroke:#000000;stroke-width:0.6;" x="490.551993" xlink:href="#mafd9205f27" y="384.48"/>
      </g>
     </g>
    </g>
    <g id="text_5">
     <!-- \textbf{Horizons (log-scale)} -->
     <g transform="translate(222.691489 418.947508)scale(0.16 -0.16)">
      <defs>
       <path d="M 4493 4170 
C 4493 4377 4448 4480 4186 4480 
L 3859 4480 
C 3616 4480 3552 4396 3552 4169 
L 3552 2624 
L 1523 2624 
L 1523 4169 
C 1523 4377 1478 4480 1216 4480 
L 890 4480 
C 659 4480 582 4409 582 4170 
L 582 302 
C 582 70 653 -8 890 -8 
L 1216 -8 
C 1459 -8 1523 76 1523 301 
L 1523 2016 
L 3552 2016 
L 3552 301 
C 3552 95 3597 -8 3859 -8 
L 4186 -8 
C 4429 -8 4493 76 4493 302 
L 4493 4170 
z
" id="CMSSBX10-48" transform="scale(0.015625)"/>
       <path d="M 3315 1459 
C 3315 2517 2803 3072 1760 3072 
C 691 3072 198 2497 198 1459 
C 198 407 749 -64 1754 -64 
C 2758 -64 3315 401 3315 1459 
z
M 1760 440 
C 1069 440 1069 1020 1069 1536 
C 1069 2033 1069 2606 1754 2606 
C 2445 2606 2445 2039 2445 1536 
C 2445 1027 2445 440 1760 440 
z
" id="CMSSBX10-6f" transform="scale(0.015625)"/>
       <path d="M 1242 1496 
C 1242 2115 1747 2368 2150 2368 
C 2266 2368 2278 2368 2278 2555 
L 2278 2860 
C 2278 2989 2278 3034 2163 3034 
C 1984 3034 1517 2970 1216 2271 
L 1210 2271 
L 1210 2690 
C 1210 2897 1165 3001 902 3001 
L 698 3001 
C 467 3001 390 2930 390 2690 
L 390 310 
C 390 78 461 0 698 0 
L 934 0 
C 1178 0 1242 84 1242 312 
L 1242 1496 
z
" id="CMSSBX10-72" transform="scale(0.015625)"/>
       <path d="M 653 4480 
C 448 4480 346 4441 346 4182 
L 346 3885 
C 346 3678 410 3594 646 3594 
L 979 3594 
C 1286 3594 1286 3730 1286 4034 
C 1286 4344 1286 4480 979 4480 
L 653 4480 
z
M 1242 2634 
C 1242 2841 1197 2944 934 2944 
L 698 2944 
C 467 2944 390 2873 390 2634 
L 390 292 
C 390 60 461 -18 698 -18 
L 934 -18 
C 1178 -18 1242 66 1242 292 
L 1242 2634 
z
" id="CMSSBX10-69" transform="scale(0.015625)"/>
       <path d="M 2726 2483 
C 2790 2568 2803 2600 2803 2703 
C 2803 2975 2605 2975 2496 2975 
L 602 2975 
C 518 2975 294 2975 294 2732 
C 294 2496 499 2496 672 2496 
C 877 2496 1395 2496 1600 2496 
L 1837 2496 
L 275 493 
C 211 407 198 375 198 272 
C 198 0 397 0 506 0 
L 2515 0 
C 2598 0 2822 0 2822 236 
C 2822 479 2624 479 2438 479 
C 2118 479 1779 479 1459 479 
L 1165 479 
L 2726 2483 
z
" id="CMSSBX10-7a" transform="scale(0.015625)"/>
       <path d="M 3200 2096 
C 3200 2761 2918 3025 2266 3025 
C 1594 3025 1306 2535 1222 2360 
L 1216 2360 
L 1216 2687 
C 1216 2896 1171 3001 909 3001 
L 691 3001 
C 461 3001 384 2930 384 2690 
L 384 310 
C 384 78 454 0 691 0 
L 947 0 
C 1190 0 1254 84 1254 309 
L 1254 1735 
C 1254 2295 1626 2560 1958 2560 
C 2266 2560 2330 2411 2330 2082 
L 2330 309 
C 2330 103 2374 0 2637 0 
L 2893 0 
C 3136 0 3200 84 3200 309 
L 3200 2096 
z
" id="CMSSBX10-6e" transform="scale(0.015625)"/>
       <path d="M 2534 902 
C 2534 1267 2342 1496 2227 1600 
C 1971 1836 1747 1875 1478 1927 
C 1126 1992 870 2045 870 2299 
C 870 2566 1082 2619 1331 2619 
C 1760 2619 1990 2456 2157 2313 
C 2221 2248 2234 2248 2259 2248 
C 2323 2248 2336 2306 2342 2332 
C 2355 2384 2419 2747 2419 2779 
C 2419 2884 2080 2975 2010 3000 
C 1754 3072 1549 3072 1382 3072 
C 1094 3072 237 3072 237 2145 
C 237 1827 378 1633 550 1477 
C 774 1270 1024 1225 1389 1154 
C 1574 1121 1901 1062 1901 778 
C 1901 473 1651 427 1402 427 
C 1120 427 762 512 461 877 
C 429 909 410 928 371 928 
C 307 928 294 871 288 832 
C 275 743 198 378 198 313 
C 198 198 672 51 678 45 
C 1030 -64 1293 -64 1402 -64 
C 1728 -64 2534 -64 2534 902 
z
" id="CMSSBX10-73" transform="scale(0.015625)"/>
       <path d="M 2054 4864 
C 1939 4864 1926 4864 1811 4760 
C 1043 4107 550 3002 550 1632 
C 550 849 710 -501 1779 -1477 
C 1914 -1600 1926 -1600 2054 -1600 
L 2170 -1600 
C 2272 -1600 2342 -1600 2342 -1516 
C 2342 -1496 2342 -1483 2266 -1399 
C 1862 -901 1421 -107 1421 1632 
C 1421 3532 1952 4281 2304 4708 
C 2330 4741 2342 4754 2342 4779 
C 2342 4864 2272 4864 2170 4864 
L 2054 4864 
z
" id="CMSSBX10-28" transform="scale(0.015625)"/>
       <path d="M 1242 4170 
C 1242 4377 1197 4480 934 4480 
L 698 4480 
C 467 4480 390 4409 390 4170 
L 390 302 
C 390 70 461 -8 698 -8 
L 934 -8 
C 1178 -8 1242 76 1242 302 
L 1242 4170 
z
" id="CMSSBX10-6c" transform="scale(0.015625)"/>
       <path d="M 1280 577 
C 1050 577 960 577 870 656 
C 845 681 736 779 736 949 
C 736 994 742 1007 749 1046 
C 1050 878 1427 878 1562 878 
C 1830 878 2848 878 2848 1950 
C 2848 2326 2707 2553 2650 2624 
C 2758 2624 2982 2624 3245 2553 
C 3270 2540 3315 2527 3334 2527 
C 3386 2527 3418 2566 3418 2611 
C 3418 2637 3386 2792 3373 2857 
C 3347 3012 3347 3025 3232 3025 
C 3034 3025 2714 2948 2470 2799 
C 2170 2999 1837 3025 1562 3025 
C 1293 3025 275 3025 275 1954 
C 275 1694 346 1370 589 1156 
C 416 915 416 663 416 630 
C 416 507 454 293 589 118 
C 493 79 160 -37 160 -451 
C 160 -652 256 -988 659 -1176 
C 1024 -1344 1453 -1344 1754 -1344 
C 2131 -1344 3354 -1344 3354 -429 
C 3354 577 2451 577 1587 577 
L 1280 577 
z
M 1562 1344 
C 1114 1344 1094 1591 1094 1949 
C 1094 2306 1114 2560 1562 2560 
C 2010 2560 2029 2313 2029 1955 
C 2029 1597 2010 1344 1562 1344 
z
M 1907 -128 
C 2426 -128 2694 -217 2694 -448 
C 2694 -879 1965 -879 1760 -879 
C 1504 -879 819 -879 819 -430 
C 819 -128 1018 -128 1165 -128 
L 1907 -128 
z
" id="CMSSBX10-67" transform="scale(0.015625)"/>
       <path d="M 1645 1280 
C 1722 1280 1952 1280 1952 1513 
C 1952 1746 1722 1746 1645 1746 
L 384 1746 
C 307 1746 77 1746 77 1513 
C 77 1280 307 1280 384 1280 
L 1645 1280 
z
" id="CMSSBX10-2d" transform="scale(0.015625)"/>
       <path d="M 2925 330 
C 2925 402 2899 698 2886 782 
C 2886 801 2874 866 2810 866 
C 2784 866 2771 866 2707 801 
C 2598 704 2298 440 1773 440 
C 1107 440 1107 1092 1107 1503 
C 1107 2026 1139 2568 1792 2568 
C 2208 2568 2381 2464 2611 2271 
C 2688 2200 2701 2200 2726 2200 
C 2790 2200 2803 2258 2810 2284 
C 2822 2336 2886 2697 2886 2729 
C 2886 2787 2842 2813 2733 2865 
C 2426 3007 2234 3072 1786 3072 
C 832 3072 237 2620 237 1491 
C 237 420 787 -64 1754 -64 
C 1926 -64 2310 -64 2739 159 
C 2918 258 2925 265 2925 330 
z
" id="CMSSBX10-63" transform="scale(0.015625)"/>
       <path d="M 2970 2050 
C 2970 3072 1997 3072 1677 3072 
C 1376 3072 1056 3046 627 2868 
C 493 2811 461 2792 461 2722 
C 461 2677 499 2300 506 2248 
C 512 2209 544 2177 589 2177 
C 621 2177 640 2196 659 2216 
C 934 2508 1254 2651 1651 2651 
C 1997 2651 2099 2435 2099 2049 
L 2099 1820 
C 1875 1820 198 1820 198 868 
C 198 415 557 -64 1120 -64 
C 1338 -64 1818 1 2118 447 
L 2118 317 
C 2118 110 2163 7 2426 7 
L 2662 7 
C 2906 7 2970 91 2970 317 
L 2970 2050 
z
M 2099 988 
C 2099 402 1491 402 1472 402 
C 1203 402 1030 639 1030 889 
C 1030 1536 1920 1536 2099 1536 
L 2099 988 
z
" id="CMSSBX10-61" transform="scale(0.015625)"/>
       <path d="M 2758 1385 
C 2906 1385 3066 1385 3066 1678 
C 3066 2514 2682 3072 1728 3072 
C 704 3072 198 2491 198 1510 
C 198 452 806 -64 1811 -64 
C 2054 -64 2419 -32 2842 182 
C 2982 253 3027 272 3027 350 
C 3027 395 3008 582 3002 633 
C 2976 833 2970 839 2912 839 
C 2886 839 2874 839 2803 775 
C 2426 447 2042 402 1837 402 
C 1114 402 1037 974 1018 1385 
L 2758 1385 
z
M 1024 1728 
C 1043 2122 1171 2606 1728 2606 
C 2240 2606 2336 2231 2355 1728 
L 1024 1728 
z
" id="CMSSBX10-65" transform="scale(0.015625)"/>
       <path d="M 563 4864 
C 461 4864 390 4864 390 4780 
C 390 4761 390 4748 467 4664 
C 864 4166 1312 3372 1312 1632 
C 1312 -262 781 -1011 429 -1445 
C 390 -1490 390 -1503 390 -1516 
C 390 -1600 461 -1600 563 -1600 
L 678 -1600 
C 794 -1600 806 -1600 922 -1496 
C 1690 -843 2182 262 2182 1632 
C 2182 2413 2022 3765 954 4741 
C 819 4864 806 4864 678 4864 
L 563 4864 
z
" id="CMSSBX10-29" transform="scale(0.015625)"/>
      </defs>
      <use transform="scale(0.996264)" xlink:href="#CMSSBX10-48"/>
      <use transform="translate(79.14808 0)scale(0.996264)" xlink:href="#CMSSBX10-6f"/>
      <use transform="translate(130.898748 0)scale(0.996264)" xlink:href="#CMSSBX10-72"/>
      <use transform="translate(167.982158 0)scale(0.996264)" xlink:href="#CMSSBX10-69"/>
      <use transform="translate(193.442377 0)scale(0.996264)" xlink:href="#CMSSBX10-7a"/>
      <use transform="translate(240.903573 0)scale(0.996264)" xlink:href="#CMSSBX10-6f"/>
      <use transform="translate(295.698397 0)scale(0.996264)" xlink:href="#CMSSBX10-6e"/>
      <use transform="translate(351.600185 0)scale(0.996264)" xlink:href="#CMSSBX10-73"/>
      <use transform="translate(430.139434 0)scale(0.996264)" xlink:href="#CMSSBX10-28"/>
      <use transform="translate(472.757631 0)scale(0.996264)" xlink:href="#CMSSBX10-6c"/>
      <use transform="translate(498.217849 0)scale(0.996264)" xlink:href="#CMSSBX10-6f"/>
      <use transform="translate(553.012674 0)scale(0.996264)" xlink:href="#CMSSBX10-67"/>
      <use transform="translate(607.807499 0)scale(0.996264)" xlink:href="#CMSSBX10-2d"/>
      <use transform="translate(644.337382 0)scale(0.996264)" xlink:href="#CMSSBX10-73"/>
      <use transform="translate(686.346747 0)scale(0.996264)" xlink:href="#CMSSBX10-63"/>
      <use transform="translate(735.053258 0)scale(0.996264)" xlink:href="#CMSSBX10-61"/>
      <use transform="translate(787.357453 0)scale(0.996264)" xlink:href="#CMSSBX10-6c"/>
      <use transform="translate(812.817672 0)scale(0.996264)" xlink:href="#CMSSBX10-65"/>
      <use transform="translate(863.738124 0)scale(0.996264)" xlink:href="#CMSSBX10-29"/>
     </g>
    </g>
   </g>
   <g id="matplotlib.axis_2">
    <g id="ytick_1">
     <g id="line2d_31">
      <defs>
       <path d="M 0 0 
L -3.5 0 
" id="m0cd245316e" style="stroke:#000000;stroke-width:0.8;"/>
      </defs>
      <g>
       <use style="stroke:#000000;stroke-width:0.8;" x="72" xlink:href="#m0cd245316e" y="372.942456"/>
      </g>
     </g>
     <g id="text_6">
      <!-- $\mathdefault{0}$ -->
      <g transform="translate(58.659261 377.43947)scale(0.13 -0.13)">
       <use transform="scale(0.996264)" xlink:href="#CMR17-30"/>
      </g>
     </g>
    </g>
    <g id="ytick_2">
     <g id="line2d_32">
      <g>
       <use style="stroke:#000000;stroke-width:0.8;" x="72" xlink:href="#m0cd245316e" y="329.801128"/>
      </g>
     </g>
     <g id="text_7">
      <!-- $\mathdefault{250}$ -->
      <g transform="translate(45.977782 334.298142)scale(0.13 -0.13)">
       <use transform="scale(0.996264)" xlink:href="#CMR17-32"/>
       <use transform="translate(45.690477 0)scale(0.996264)" xlink:href="#CMR17-35"/>
       <use transform="translate(91.380954 0)scale(0.996264)" xlink:href="#CMR17-30"/>
      </g>
     </g>
    </g>
    <g id="ytick_3">
     <g id="line2d_33">
      <g>
       <use style="stroke:#000000;stroke-width:0.8;" x="72" xlink:href="#m0cd245316e" y="286.6598"/>
      </g>
     </g>
     <g id="text_8">
      <!-- $\mathdefault{500}$ -->
      <g transform="translate(45.977782 291.156814)scale(0.13 -0.13)">
       <use transform="scale(0.996264)" xlink:href="#CMR17-35"/>
       <use transform="translate(45.690477 0)scale(0.996264)" xlink:href="#CMR17-30"/>
       <use transform="translate(91.380954 0)scale(0.996264)" xlink:href="#CMR17-30"/>
      </g>
     </g>
    </g>
    <g id="ytick_4">
     <g id="line2d_34">
      <g>
       <use style="stroke:#000000;stroke-width:0.8;" x="72" xlink:href="#m0cd245316e" y="243.518472"/>
      </g>
     </g>
     <g id="text_9">
      <!-- $\mathdefault{750}$ -->
      <g transform="translate(45.977782 248.015487)scale(0.13 -0.13)">
       <defs>
        <path d="M 2886 3941 
L 2886 4081 
L 1382 4081 
C 634 4081 621 4165 595 4288 
L 480 4288 
L 294 3094 
L 410 3094 
C 429 3215 474 3540 550 3661 
C 589 3712 1062 3712 1171 3712 
L 2579 3712 
L 1869 2661 
C 1395 1954 1069 999 1069 165 
C 1069 89 1069 -128 1299 -128 
C 1530 -128 1530 89 1530 171 
L 1530 465 
C 1530 1508 1709 2196 2003 2636 
L 2886 3941 
z
" id="CMR17-37" transform="scale(0.015625)"/>
       </defs>
       <use transform="scale(0.996264)" xlink:href="#CMR17-37"/>
       <use transform="translate(45.690477 0)scale(0.996264)" xlink:href="#CMR17-35"/>
       <use transform="translate(91.380954 0)scale(0.996264)" xlink:href="#CMR17-30"/>
      </g>
     </g>
    </g>
    <g id="ytick_5">
     <g id="line2d_35">
      <g>
       <use style="stroke:#000000;stroke-width:0.8;" x="72" xlink:href="#m0cd245316e" y="200.377145"/>
      </g>
     </g>
     <g id="text_10">
      <!-- $\mathdefault{1000}$ -->
      <g transform="translate(39.637042 204.874159)scale(0.13 -0.13)">
       <use transform="scale(0.996264)" xlink:href="#CMR17-31"/>
       <use transform="translate(45.690477 0)scale(0.996264)" xlink:href="#CMR17-30"/>
       <use transform="translate(91.380954 0)scale(0.996264)" xlink:href="#CMR17-30"/>
       <use transform="translate(137.071431 0)scale(0.996264)" xlink:href="#CMR17-30"/>
      </g>
     </g>
    </g>
    <g id="ytick_6">
     <g id="line2d_36">
      <g>
       <use style="stroke:#000000;stroke-width:0.8;" x="72" xlink:href="#m0cd245316e" y="157.235817"/>
      </g>
     </g>
     <g id="text_11">
      <!-- $\mathdefault{1250}$ -->
      <g transform="translate(39.637042 161.732831)scale(0.13 -0.13)">
       <use transform="scale(0.996264)" xlink:href="#CMR17-31"/>
       <use transform="translate(45.690477 0)scale(0.996264)" xlink:href="#CMR17-32"/>
       <use transform="translate(91.380954 0)scale(0.996264)" xlink:href="#CMR17-35"/>
       <use transform="translate(137.071431 0)scale(0.996264)" xlink:href="#CMR17-30"/>
      </g>
     </g>
    </g>
    <g id="ytick_7">
     <g id="line2d_37">
      <g>
       <use style="stroke:#000000;stroke-width:0.8;" x="72" xlink:href="#m0cd245316e" y="114.094489"/>
      </g>
     </g>
     <g id="text_12">
      <!-- $\mathdefault{1500}$ -->
      <g transform="translate(39.637042 118.591503)scale(0.13 -0.13)">
       <use transform="scale(0.996264)" xlink:href="#CMR17-31"/>
       <use transform="translate(45.690477 0)scale(0.996264)" xlink:href="#CMR17-35"/>
       <use transform="translate(91.380954 0)scale(0.996264)" xlink:href="#CMR17-30"/>
       <use transform="translate(137.071431 0)scale(0.996264)" xlink:href="#CMR17-30"/>
      </g>
     </g>
    </g>
    <g id="ytick_8">
     <g id="line2d_38">
      <g>
       <use style="stroke:#000000;stroke-width:0.8;" x="72" xlink:href="#m0cd245316e" y="70.953161"/>
      </g>
     </g>
     <g id="text_13">
      <!-- $\mathdefault{1750}$ -->
      <g transform="translate(39.637042 75.450175)scale(0.13 -0.13)">
       <use transform="scale(0.996264)" xlink:href="#CMR17-31"/>
       <use transform="translate(45.690477 0)scale(0.996264)" xlink:href="#CMR17-37"/>
       <use transform="translate(91.380954 0)scale(0.996264)" xlink:href="#CMR17-35"/>
       <use transform="translate(137.071431 0)scale(0.996264)" xlink:href="#CMR17-30"/>
      </g>
     </g>
    </g>
    <g id="text_14">
     <!-- \textbf{REG (Average Regret over 50 Runs)} -->
     <g transform="translate(31.651986 352.065295)rotate(-90)scale(0.16 -0.16)">
      <defs>
       <path d="M 3091 2059 
C 3494 2156 4102 2402 4102 3205 
C 4102 4480 2714 4480 2426 4480 
L 890 4480 
C 659 4480 582 4409 582 4170 
L 582 298 
C 582 66 653 -12 890 -12 
L 1197 -12 
C 1440 -12 1504 71 1504 296 
L 1504 1984 
L 2214 1984 
L 3264 142 
C 3354 -12 3424 -12 3565 -12 
L 3942 -12 
C 4070 -12 4179 -12 4179 181 
L 3091 2059 
z
M 1504 2450 
L 1504 3924 
L 2336 3924 
C 3078 3924 3213 3623 3213 3191 
C 3213 2804 3123 2450 2336 2450 
L 1504 2450 
z
" id="CMSSBX10-52" transform="scale(0.015625)"/>
       <path d="M 1523 2016 
L 3206 2016 
C 3405 2016 3514 2062 3514 2320 
C 3514 2560 3430 2624 3206 2624 
L 1523 2624 
L 1523 3814 
L 1837 3814 
C 2336 3814 2842 3814 3341 3814 
C 3565 3814 3712 3814 3712 4122 
L 3712 4173 
C 3712 4377 3667 4480 3405 4480 
L 890 4480 
C 659 4480 582 4409 582 4170 
L 582 316 
C 582 84 653 6 890 6 
L 3501 6 
C 3744 6 3808 88 3808 310 
L 3808 400 
C 3808 704 3661 704 3450 704 
C 3117 704 2790 704 2458 704 
C 2298 704 1638 704 1523 704 
L 1523 2016 
z
" id="CMSSBX10-45" transform="scale(0.015625)"/>
       <path d="M 4224 2002 
C 4224 2028 4205 2086 4147 2086 
L 2835 2086 
C 2784 2086 2739 2073 2739 1996 
L 2739 1537 
C 2739 1498 2771 1472 2810 1472 
L 3347 1472 
L 3347 654 
C 3290 615 2861 577 2765 577 
C 1690 577 1338 1254 1338 2247 
C 1338 3207 1683 3904 2726 3904 
C 3270 3904 3533 3768 3910 3412 
C 3930 3393 3949 3386 3968 3386 
C 4000 3386 4032 3412 4045 3470 
L 4160 4130 
C 4166 4162 4173 4201 4115 4234 
C 3923 4337 3450 4550 2765 4550 
C 1069 4550 397 3679 397 2247 
C 397 652 1235 -64 2726 -64 
C 3405 -64 4045 151 4224 299 
L 4224 2002 
z
" id="CMSSBX10-47" transform="scale(0.015625)"/>
       <path d="M 3034 4202 
C 2938 4480 2752 4480 2624 4480 
L 2061 4480 
C 1933 4480 1747 4480 1651 4202 
L 301 303 
C 269 220 269 207 269 175 
C 269 0 429 0 518 0 
L 749 0 
C 864 0 1062 0 1152 254 
L 1402 960 
L 3174 960 
L 3392 350 
C 3469 127 3514 0 3821 0 
L 4166 0 
C 4256 0 4416 0 4416 172 
C 4416 204 4416 217 4384 301 
L 3034 4202 
z
M 2054 2891 
C 2150 3176 2234 3422 2285 3656 
L 2291 3656 
C 2323 3501 2323 3488 2374 3338 
L 2982 1516 
L 1594 1516 
L 2054 2891 
z
" id="CMSSBX10-41" transform="scale(0.015625)"/>
       <path d="M 2995 2671 
C 3027 2762 3027 2775 3027 2794 
C 3027 2976 2867 2976 2771 2976 
L 2637 2976 
C 2368 2976 2298 2879 2240 2697 
L 1606 734 
L 973 2697 
C 928 2833 883 2976 576 2976 
L 422 2976 
C 326 2976 166 2976 166 2794 
C 166 2775 166 2762 198 2670 
L 960 273 
C 1050 0 1248 0 1363 0 
L 1830 0 
C 1946 0 2144 0 2234 273 
L 2995 2671 
z
" id="CMSSBX10-76" transform="scale(0.015625)"/>
       <path d="M 1395 2496 
L 1965 2496 
C 2042 2496 2272 2496 2272 2729 
C 2272 2962 2042 2962 1965 2962 
L 1395 2962 
L 1395 3498 
C 1395 3705 1350 3808 1088 3808 
L 890 3808 
C 659 3808 582 3737 582 3498 
L 582 2962 
L 435 2962 
C 365 2962 128 2962 128 2729 
C 128 2496 358 2496 435 2496 
L 563 2496 
L 563 864 
C 563 213 794 -64 1235 -64 
C 1293 -64 1574 -64 1907 39 
C 2016 72 2387 188 2387 311 
C 2387 330 2374 376 2336 510 
C 2304 639 2291 678 2234 678 
C 2202 678 2195 671 2157 632 
C 2086 582 1914 440 1645 440 
C 1491 440 1395 550 1395 975 
L 1395 2496 
z
" id="CMSSBX10-74" transform="scale(0.015625)"/>
       <path d="M 1363 3834 
L 2618 3834 
C 2918 3834 2925 3982 2925 4157 
C 2925 4325 2925 4480 2618 4480 
L 838 4480 
C 634 4480 531 4442 531 4181 
L 531 2188 
C 531 1895 678 1895 851 1895 
C 1018 1895 1075 1895 1165 2051 
C 1318 2303 1536 2432 1805 2432 
C 2221 2432 2221 1941 2221 1437 
C 2221 939 2221 448 1549 448 
C 1350 448 915 506 659 1017 
C 640 1056 621 1094 576 1094 
C 525 1094 512 1062 474 1010 
C 384 862 237 635 237 590 
C 237 538 653 -160 1568 -160 
C 2598 -160 3162 364 3162 1410 
C 3162 2264 2810 2898 1830 2898 
C 1670 2898 1517 2872 1363 2814 
L 1363 3834 
z
" id="CMSSBX10-35" transform="scale(0.015625)"/>
       <path d="M 3238 2223 
C 3238 3105 3238 4626 1760 4626 
C 275 4626 275 3118 275 2223 
C 275 1340 275 -128 1754 -128 
C 3238 -128 3238 1327 3238 2223 
z
M 1754 337 
C 1280 337 1210 929 1190 1103 
C 1146 1444 1146 2049 1146 2313 
C 1146 2692 1146 3104 1184 3420 
C 1203 3594 1267 4160 1754 4160 
C 2227 4160 2304 3620 2323 3490 
C 2368 3163 2368 2654 2368 2313 
C 2368 1946 2368 1444 2323 1090 
C 2304 923 2234 337 1754 337 
z
" id="CMSSBX10-30" transform="scale(0.015625)"/>
       <path d="M 3200 2652 
C 3200 2859 3155 2962 2893 2962 
L 2637 2962 
C 2394 2962 2330 2878 2330 2653 
L 2330 1124 
C 2330 698 2106 330 1651 330 
C 1293 330 1254 421 1254 763 
L 1254 2653 
C 1254 2859 1210 2962 947 2962 
L 691 2962 
C 461 2962 384 2891 384 2653 
L 384 820 
C 384 130 755 -64 1421 -64 
C 1594 -64 2048 -64 2349 485 
L 2349 314 
C 2349 104 2394 0 2656 0 
L 2893 0 
C 3136 0 3200 84 3200 310 
L 3200 2652 
z
" id="CMSSBX10-75" transform="scale(0.015625)"/>
      </defs>
      <use transform="scale(0.996264)" xlink:href="#CMSSBX10-52"/>
      <use transform="translate(70.015609 0)scale(0.996264)" xlink:href="#CMSSBX10-45"/>
      <use transform="translate(133.942905 0)scale(0.996264)" xlink:href="#CMSSBX10-47"/>
      <use transform="translate(243.532554 0)scale(0.996264)" xlink:href="#CMSSBX10-28"/>
      <use transform="translate(286.150751 0)scale(0.996264)" xlink:href="#CMSSBX10-41"/>
      <use transform="translate(359.210517 0)scale(0.996264)" xlink:href="#CMSSBX10-76"/>
      <use transform="translate(409.023991 0)scale(0.996264)" xlink:href="#CMSSBX10-65"/>
      <use transform="translate(459.944444 0)scale(0.996264)" xlink:href="#CMSSBX10-72"/>
      <use transform="translate(497.027854 0)scale(0.996264)" xlink:href="#CMSSBX10-61"/>
      <use transform="translate(549.332049 0)scale(0.996264)" xlink:href="#CMSSBX10-67"/>
      <use transform="translate(604.126873 0)scale(0.996264)" xlink:href="#CMSSBX10-65"/>
      <use transform="translate(691.577209 0)scale(0.996264)" xlink:href="#CMSSBX10-52"/>
      <use transform="translate(761.592818 0)scale(0.996264)" xlink:href="#CMSSBX10-65"/>
      <use transform="translate(812.513271 0)scale(0.996264)" xlink:href="#CMSSBX10-67"/>
      <use transform="translate(867.308096 0)scale(0.996264)" xlink:href="#CMSSBX10-72"/>
      <use transform="translate(904.391506 0)scale(0.996264)" xlink:href="#CMSSBX10-65"/>
      <use transform="translate(955.311959 0)scale(0.996264)" xlink:href="#CMSSBX10-74"/>
      <use transform="translate(1032.107745 0)scale(0.996264)" xlink:href="#CMSSBX10-6f"/>
      <use transform="translate(1086.90257 0)scale(0.996264)" xlink:href="#CMSSBX10-76"/>
      <use transform="translate(1136.716044 0)scale(0.996264)" xlink:href="#CMSSBX10-65"/>
      <use transform="translate(1187.636497 0)scale(0.996264)" xlink:href="#CMSSBX10-72"/>
      <use transform="translate(1261.24979 0)scale(0.996264)" xlink:href="#CMSSBX10-35"/>
      <use transform="translate(1316.044615 0)scale(0.996264)" xlink:href="#CMSSBX10-30"/>
      <use transform="translate(1407.369322 0)scale(0.996264)" xlink:href="#CMSSBX10-52"/>
      <use transform="translate(1477.384932 0)scale(0.996264)" xlink:href="#CMSSBX10-75"/>
      <use transform="translate(1533.28672 0)scale(0.996264)" xlink:href="#CMSSBX10-6e"/>
      <use transform="translate(1589.188508 0)scale(0.996264)" xlink:href="#CMSSBX10-73"/>
      <use transform="translate(1631.197873 0)scale(0.996264)" xlink:href="#CMSSBX10-29"/>
     </g>
    </g>
   </g>
   <g id="line2d_39">
    <path clip-path="url(#pb4456aa472)" d="M 92.290909 362.481547 
L 173.454545 349.325167 
L 254.618182 333.380133 
L 335.781818 310.422044 
L 416.945455 256.191669 
L 498.109091 130.722882 
" style="fill:none;stroke:#ff0000;stroke-dasharray:2,3.3;stroke-dashoffset:0;stroke-opacity:0.8;stroke-width:2;"/>
    <defs>
     <path d="M 0 3 
C 0.795609 3 1.55874 2.683901 2.12132 2.12132 
C 2.683901 1.55874 3 0.795609 3 0 
C 3 -0.795609 2.683901 -1.55874 2.12132 -2.12132 
C 1.55874 -2.683901 0.795609 -3 0 -3 
C -0.795609 -3 -1.55874 -2.683901 -2.12132 -2.12132 
C -2.683901 -1.55874 -3 -0.795609 -3 0 
C -3 0.795609 -2.683901 1.55874 -2.12132 2.12132 
C -1.55874 2.683901 -0.795609 3 0 3 
z
" id="mea2d6f05c9" style="stroke:#ff0000;stroke-opacity:0.8;"/>
    </defs>
    <g clip-path="url(#pb4456aa472)">
     <use style="fill:#ff0000;fill-opacity:0.8;stroke:#ff0000;stroke-opacity:0.8;" x="92.290909" xlink:href="#mea2d6f05c9" y="362.481547"/>
     <use style="fill:#ff0000;fill-opacity:0.8;stroke:#ff0000;stroke-opacity:0.8;" x="173.454545" xlink:href="#mea2d6f05c9" y="349.325167"/>
     <use style="fill:#ff0000;fill-opacity:0.8;stroke:#ff0000;stroke-opacity:0.8;" x="254.618182" xlink:href="#mea2d6f05c9" y="333.380133"/>
     <use style="fill:#ff0000;fill-opacity:0.8;stroke:#ff0000;stroke-opacity:0.8;" x="335.781818" xlink:href="#mea2d6f05c9" y="310.422044"/>
     <use style="fill:#ff0000;fill-opacity:0.8;stroke:#ff0000;stroke-opacity:0.8;" x="416.945455" xlink:href="#mea2d6f05c9" y="256.191669"/>
     <use style="fill:#ff0000;fill-opacity:0.8;stroke:#ff0000;stroke-opacity:0.8;" x="498.109091" xlink:href="#mea2d6f05c9" y="130.722882"/>
    </g>
   </g>
   <g id="line2d_40">
    <path clip-path="url(#pb4456aa472)" d="M 92.290909 367.223641 
L 173.454545 353.780804 
L 254.618182 317.555894 
L 335.781818 249.496135 
L 416.945455 158.757843 
L 498.109091 66.96 
" style="fill:none;stroke:#0000ff;stroke-dasharray:2,3.3;stroke-dashoffset:0;stroke-opacity:0.8;stroke-width:2;"/>
    <defs>
     <path d="M 0 3 
C 0.795609 3 1.55874 2.683901 2.12132 2.12132 
C 2.683901 1.55874 3 0.795609 3 0 
C 3 -0.795609 2.683901 -1.55874 2.12132 -2.12132 
C 1.55874 -2.683901 0.795609 -3 0 -3 
C -0.795609 -3 -1.55874 -2.683901 -2.12132 -2.12132 
C -2.683901 -1.55874 -3 -0.795609 -3 0 
C -3 0.795609 -2.683901 1.55874 -2.12132 2.12132 
C -1.55874 2.683901 -0.795609 3 0 3 
z
" id="m1f1de51ab4" style="stroke:#0000ff;stroke-opacity:0.8;"/>
    </defs>
    <g clip-path="url(#pb4456aa472)">
     <use style="fill:#0000ff;fill-opacity:0.8;stroke:#0000ff;stroke-opacity:0.8;" x="92.290909" xlink:href="#m1f1de51ab4" y="367.223641"/>
     <use style="fill:#0000ff;fill-opacity:0.8;stroke:#0000ff;stroke-opacity:0.8;" x="173.454545" xlink:href="#m1f1de51ab4" y="353.780804"/>
     <use style="fill:#0000ff;fill-opacity:0.8;stroke:#0000ff;stroke-opacity:0.8;" x="254.618182" xlink:href="#m1f1de51ab4" y="317.555894"/>
     <use style="fill:#0000ff;fill-opacity:0.8;stroke:#0000ff;stroke-opacity:0.8;" x="335.781818" xlink:href="#m1f1de51ab4" y="249.496135"/>
     <use style="fill:#0000ff;fill-opacity:0.8;stroke:#0000ff;stroke-opacity:0.8;" x="416.945455" xlink:href="#m1f1de51ab4" y="158.757843"/>
     <use style="fill:#0000ff;fill-opacity:0.8;stroke:#0000ff;stroke-opacity:0.8;" x="498.109091" xlink:href="#m1f1de51ab4" y="66.96"/>
    </g>
   </g>
   <g id="line2d_41">
    <path clip-path="url(#pb4456aa472)" d="M 92.290909 369.36 
L 173.454545 364.55233 
L 254.618182 355.216547 
L 335.781818 346.02917 
L 416.945455 337.490638 
L 498.109091 329.114318 
" style="fill:none;stroke:#008000;stroke-dasharray:2,3.3;stroke-dashoffset:0;stroke-opacity:0.8;stroke-width:2;"/>
    <defs>
     <path d="M 0 3 
C 0.795609 3 1.55874 2.683901 2.12132 2.12132 
C 2.683901 1.55874 3 0.795609 3 0 
C 3 -0.795609 2.683901 -1.55874 2.12132 -2.12132 
C 1.55874 -2.683901 0.795609 -3 0 -3 
C -0.795609 -3 -1.55874 -2.683901 -2.12132 -2.12132 
C -2.683901 -1.55874 -3 -0.795609 -3 0 
C -3 0.795609 -2.683901 1.55874 -2.12132 2.12132 
C -1.55874 2.683901 -0.795609 3 0 3 
z
" id="m68f71b1622" style="stroke:#008000;stroke-opacity:0.8;"/>
    </defs>
    <g clip-path="url(#pb4456aa472)">
     <use style="fill:#008000;fill-opacity:0.8;stroke:#008000;stroke-opacity:0.8;" x="92.290909" xlink:href="#m68f71b1622" y="369.36"/>
     <use style="fill:#008000;fill-opacity:0.8;stroke:#008000;stroke-opacity:0.8;" x="173.454545" xlink:href="#m68f71b1622" y="364.55233"/>
     <use style="fill:#008000;fill-opacity:0.8;stroke:#008000;stroke-opacity:0.8;" x="254.618182" xlink:href="#m68f71b1622" y="355.216547"/>
     <use style="fill:#008000;fill-opacity:0.8;stroke:#008000;stroke-opacity:0.8;" x="335.781818" xlink:href="#m68f71b1622" y="346.02917"/>
     <use style="fill:#008000;fill-opacity:0.8;stroke:#008000;stroke-opacity:0.8;" x="416.945455" xlink:href="#m68f71b1622" y="337.490638"/>
     <use style="fill:#008000;fill-opacity:0.8;stroke:#008000;stroke-opacity:0.8;" x="498.109091" xlink:href="#m68f71b1622" y="329.114318"/>
    </g>
   </g>
   <g id="line2d_42">
    <path clip-path="url(#pb4456aa472)" d="M 92.290909 369.246107 
L 173.454545 366.685238 
L 254.618182 363.382338 
L 335.781818 361.663587 
L 416.945455 360.203685 
L 498.109091 355.520262 
" style="fill:none;stroke:#9932cc;stroke-dasharray:2,3.3;stroke-dashoffset:0;stroke-opacity:0.8;stroke-width:2;"/>
    <defs>
     <path d="M 0 3 
C 0.795609 3 1.55874 2.683901 2.12132 2.12132 
C 2.683901 1.55874 3 0.795609 3 0 
C 3 -0.795609 2.683901 -1.55874 2.12132 -2.12132 
C 1.55874 -2.683901 0.795609 -3 0 -3 
C -0.795609 -3 -1.55874 -2.683901 -2.12132 -2.12132 
C -2.683901 -1.55874 -3 -0.795609 -3 0 
C -3 0.795609 -2.683901 1.55874 -2.12132 2.12132 
C -1.55874 2.683901 -0.795609 3 0 3 
z
" id="m854dcaf563" style="stroke:#9932cc;stroke-opacity:0.8;"/>
    </defs>
    <g clip-path="url(#pb4456aa472)">
     <use style="fill:#9932cc;fill-opacity:0.8;stroke:#9932cc;stroke-opacity:0.8;" x="92.290909" xlink:href="#m854dcaf563" y="369.246107"/>
     <use style="fill:#9932cc;fill-opacity:0.8;stroke:#9932cc;stroke-opacity:0.8;" x="173.454545" xlink:href="#m854dcaf563" y="366.685238"/>
     <use style="fill:#9932cc;fill-opacity:0.8;stroke:#9932cc;stroke-opacity:0.8;" x="254.618182" xlink:href="#m854dcaf563" y="363.382338"/>
     <use style="fill:#9932cc;fill-opacity:0.8;stroke:#9932cc;stroke-opacity:0.8;" x="335.781818" xlink:href="#m854dcaf563" y="361.663587"/>
     <use style="fill:#9932cc;fill-opacity:0.8;stroke:#9932cc;stroke-opacity:0.8;" x="416.945455" xlink:href="#m854dcaf563" y="360.203685"/>
     <use style="fill:#9932cc;fill-opacity:0.8;stroke:#9932cc;stroke-opacity:0.8;" x="498.109091" xlink:href="#m854dcaf563" y="355.520262"/>
    </g>
   </g>
   <g id="patch_3">
    <path d="M 72 384.48 
L 72 51.84 
" style="fill:none;stroke:#000000;stroke-linecap:square;stroke-linejoin:miter;stroke-width:0.8;"/>
   </g>
   <g id="patch_4">
    <path d="M 518.4 384.48 
L 518.4 51.84 
" style="fill:none;stroke:#000000;stroke-linecap:square;stroke-linejoin:miter;stroke-width:0.8;"/>
   </g>
   <g id="patch_5">
    <path d="M 72 384.48 
L 518.4 384.48 
" style="fill:none;stroke:#000000;stroke-linecap:square;stroke-linejoin:miter;stroke-width:0.8;"/>
   </g>
   <g id="patch_6">
    <path d="M 72 51.84 
L 518.4 51.84 
" style="fill:none;stroke:#000000;stroke-linecap:square;stroke-linejoin:miter;stroke-width:0.8;"/>
   </g>
   <g id="text_15">
    <!-- ../instances/instances-task1/i-3.txt -->
    <g transform="translate(171.651656 45.84)scale(0.18 -0.18)">
     <defs>
      <path d="M 1088 510 
L 576 510 
L 576 0 
L 1088 0 
L 1088 510 
z
" id="CMSS17-2e" transform="scale(0.015625)"/>
      <path d="M 2637 4545 
C 2669 4627 2669 4640 2669 4653 
C 2669 4729 2611 4768 2560 4768 
C 2483 4768 2458 4717 2432 4640 
L 365 -1377 
C 333 -1460 333 -1473 333 -1486 
C 333 -1562 390 -1600 442 -1600 
C 518 -1600 544 -1549 570 -1473 
L 2637 4545 
z
" id="CMSS17-2f" transform="scale(0.015625)"/>
      <path d="M 979 4183 
L 442 4183 
L 442 3648 
L 979 3648 
L 979 4183 
z
M 947 2739 
L 474 2739 
L 474 0 
L 947 0 
L 947 2739 
z
" id="CMSS17-69" transform="scale(0.015625)"/>
      <path d="M 2618 1877 
C 2618 2283 2522 2816 1798 2816 
C 1389 2816 1120 2606 941 2389 
L 941 2758 
L 474 2758 
L 474 0 
L 960 0 
L 960 1559 
C 960 1964 1114 2428 1549 2428 
C 2112 2428 2131 2048 2131 1829 
L 2131 0 
L 2618 0 
L 2618 1877 
z
" id="CMSS17-6e" transform="scale(0.015625)"/>
      <path d="M 2061 2627 
C 1683 2807 1389 2807 1197 2807 
C 742 2807 198 2648 198 2003 
C 198 1359 902 1218 1094 1179 
C 1389 1122 1715 1058 1715 740 
C 1715 337 1254 337 1171 337 
C 915 337 563 407 243 638 
L 166 210 
C 531 0 883 -64 1178 -64 
C 1965 -64 2163 416 2163 781 
C 2163 1094 1984 1305 1862 1401 
C 1651 1568 1574 1587 1050 1696 
C 960 1709 646 1779 646 2066 
C 646 2432 1050 2432 1139 2432 
C 1555 2432 1811 2303 1984 2208 
L 2061 2627 
z
" id="CMSS17-73" transform="scale(0.015625)"/>
      <path d="M 1069 2368 
L 1901 2368 
L 1901 2737 
L 1069 2737 
L 1069 3520 
L 614 3520 
L 614 2737 
L 109 2737 
L 109 2368 
L 602 2368 
L 602 749 
C 602 384 685 -64 1107 -64 
C 1427 -64 1722 25 2003 172 
L 1901 548 
C 1747 414 1562 337 1363 337 
C 1082 337 1069 696 1069 856 
L 1069 2368 
z
" id="CMSS17-74" transform="scale(0.015625)"/>
      <path d="M 2406 1791 
C 2406 2392 1978 2808 1402 2808 
C 1120 2808 813 2757 461 2553 
L 499 2135 
C 659 2248 934 2432 1395 2432 
C 1722 2432 1920 2180 1920 1782 
L 1920 1536 
C 896 1536 256 1238 256 726 
C 256 461 416 -64 947 -64 
C 1043 -64 1562 -64 1933 217 
L 1933 -19 
L 2406 -19 
L 2406 1791 
z
M 1920 816 
C 1920 701 1920 548 1728 434 
C 1562 325 1350 325 1261 325 
C 941 325 723 511 723 744 
C 723 1211 1722 1211 1920 1211 
L 1920 816 
z
" id="CMSS17-61" transform="scale(0.015625)"/>
      <path d="M 2464 2541 
C 2464 2585 2170 2714 2093 2739 
C 1882 2816 1613 2816 1542 2816 
C 710 2816 211 2093 211 1363 
C 211 595 768 -64 1517 -64 
C 1946 -64 2253 76 2502 242 
L 2464 664 
C 2189 453 1869 337 1523 337 
C 1024 337 698 774 698 1369 
C 698 1831 909 2414 1549 2414 
C 1901 2414 2099 2343 2394 2145 
L 2464 2541 
z
" id="CMSS17-63" transform="scale(0.015625)"/>
      <path d="M 2502 1377 
C 2502 1590 2490 2003 2285 2345 
C 2061 2713 1696 2816 1421 2816 
C 755 2816 192 2188 192 1375 
C 192 582 774 -64 1510 -64 
C 1798 -64 2150 19 2470 248 
C 2470 274 2458 414 2451 420 
C 2451 433 2432 630 2432 656 
C 2125 407 1773 325 1517 325 
C 1107 325 666 667 646 1377 
L 2502 1377 
z
M 698 1728 
C 781 2084 1062 2421 1421 2421 
C 1517 2421 1965 2421 2080 1728 
L 698 1728 
z
" id="CMSS17-65" transform="scale(0.015625)"/>
      <path d="M 1664 1216 
L 1664 1585 
L 64 1585 
L 64 1216 
L 1664 1216 
z
" id="CMSS17-2d" transform="scale(0.015625)"/>
      <path d="M 1696 1688 
L 2688 2739 
L 2074 2739 
L 954 1554 
L 954 4416 
L 480 4416 
L 480 0 
L 947 0 
L 947 892 
L 1376 1344 
L 2278 0 
L 2822 0 
L 1696 1688 
z
" id="CMSS17-6b" transform="scale(0.015625)"/>
      <path d="M 1818 4288 
L 1696 4288 
C 1350 3940 947 3890 538 3890 
L 538 3520 
C 723 3520 1024 3520 1325 3667 
L 1325 369 
L 570 369 
L 570 0 
L 2573 0 
L 2573 369 
L 1818 369 
L 1818 4288 
z
" id="CMSS17-31" transform="scale(0.015625)"/>
      <path d="M 1005 2025 
L 1440 2025 
C 2042 2025 2214 1507 2214 1146 
C 2214 653 1933 267 1472 267 
C 1114 267 608 444 320 912 
C 275 691 275 678 250 526 
C 550 88 1037 -128 1485 -128 
C 2214 -128 2752 473 2752 1138 
C 2752 1638 2400 2057 1920 2215 
C 2304 2424 2586 2816 2586 3273 
C 2586 3805 2093 4229 1491 4229 
C 941 4229 512 3892 333 3530 
C 378 3468 493 3284 550 3189 
C 691 3562 1056 3840 1485 3840 
C 1843 3840 2080 3607 2080 3271 
C 2080 2923 1856 2543 1478 2455 
C 1453 2455 1056 2417 1005 2411 
L 1005 2025 
z
" id="CMSS17-33" transform="scale(0.015625)"/>
      <path d="M 1587 1414 
L 2656 2739 
L 2099 2739 
L 1363 1777 
L 602 2739 
L 32 2739 
L 1139 1414 
L 0 0 
L 563 0 
L 1363 1121 
L 2195 0 
L 2758 0 
L 1587 1414 
z
" id="CMSS17-78" transform="scale(0.015625)"/>
     </defs>
     <use transform="scale(0.996264)" xlink:href="#CMSS17-2e"/>
     <use transform="translate(26.024205 0)scale(0.996264)" xlink:href="#CMSS17-2e"/>
     <use transform="translate(52.04841 0)scale(0.996264)" xlink:href="#CMSS17-2f"/>
     <use transform="translate(98.892033 0)scale(0.996264)" xlink:href="#CMSS17-69"/>
     <use transform="translate(121.072756 0)scale(0.996264)" xlink:href="#CMSS17-6e"/>
     <use transform="translate(169.277699 0)scale(0.996264)" xlink:href="#CMSS17-73"/>
     <use transform="translate(205.191241 0)scale(0.996264)" xlink:href="#CMSS17-74"/>
     <use transform="translate(239.022808 0)scale(0.996264)" xlink:href="#CMSS17-61"/>
     <use transform="translate(283.944729 0)scale(0.996264)" xlink:href="#CMSS17-6e"/>
     <use transform="translate(332.149672 0)scale(0.996264)" xlink:href="#CMSS17-63"/>
     <use transform="translate(373.788494 0)scale(0.996264)" xlink:href="#CMSS17-65"/>
     <use transform="translate(415.427316 0)scale(0.996264)" xlink:href="#CMSS17-73"/>
     <use transform="translate(451.340858 0)scale(0.996264)" xlink:href="#CMSS17-2f"/>
     <use transform="translate(498.184482 0)scale(0.996264)" xlink:href="#CMSS17-69"/>
     <use transform="translate(520.365205 0)scale(0.996264)" xlink:href="#CMSS17-6e"/>
     <use transform="translate(568.570148 0)scale(0.996264)" xlink:href="#CMSS17-73"/>
     <use transform="translate(604.48369 0)scale(0.996264)" xlink:href="#CMSS17-74"/>
     <use transform="translate(638.315256 0)scale(0.996264)" xlink:href="#CMSS17-61"/>
     <use transform="translate(683.237177 0)scale(0.996264)" xlink:href="#CMSS17-6e"/>
     <use transform="translate(731.44212 0)scale(0.996264)" xlink:href="#CMSS17-63"/>
     <use transform="translate(773.080942 0)scale(0.996264)" xlink:href="#CMSS17-65"/>
     <use transform="translate(814.719764 0)scale(0.996264)" xlink:href="#CMSS17-73"/>
     <use transform="translate(850.633306 0)scale(0.996264)" xlink:href="#CMSS17-2d"/>
     <use transform="translate(881.862419 0)scale(0.996264)" xlink:href="#CMSS17-74"/>
     <use transform="translate(915.693986 0)scale(0.996264)" xlink:href="#CMSS17-61"/>
     <use transform="translate(960.615906 0)scale(0.996264)" xlink:href="#CMSS17-73"/>
     <use transform="translate(996.529448 0)scale(0.996264)" xlink:href="#CMSS17-6b"/>
     <use transform="translate(1042.131937 0)scale(0.996264)" xlink:href="#CMSS17-31"/>
     <use transform="translate(1088.975561 0)scale(0.996264)" xlink:href="#CMSS17-2f"/>
     <use transform="translate(1135.819185 0)scale(0.996264)" xlink:href="#CMSS17-69"/>
     <use transform="translate(1157.999908 0)scale(0.996264)" xlink:href="#CMSS17-2d"/>
     <use transform="translate(1189.22902 0)scale(0.996264)" xlink:href="#CMSS17-33"/>
     <use transform="translate(1236.072644 0)scale(0.996264)" xlink:href="#CMSS17-2e"/>
     <use transform="translate(1262.096849 0)scale(0.996264)" xlink:href="#CMSS17-74"/>
     <use transform="translate(1295.928415 0)scale(0.996264)" xlink:href="#CMSS17-78"/>
     <use transform="translate(1338.928557 0)scale(0.996264)" xlink:href="#CMSS17-74"/>
    </g>
   </g>
   <g id="legend_1">
    <g id="patch_7">
     <path d="M 79 115.588713 
L 203.514293 115.588713 
Q 205.514293 115.588713 205.514293 113.588713 
L 205.514293 58.84 
Q 205.514293 56.84 203.514293 56.84 
L 79 56.84 
Q 77 56.84 77 58.84 
L 77 113.588713 
Q 77 115.588713 79 115.588713 
z
" style="fill:#ffffff;opacity:0.8;stroke:#cccccc;stroke-linejoin:miter;"/>
    </g>
    <g id="line2d_43">
     <path d="M 81 64.34 
L 101 64.34 
" style="fill:none;stroke:#ff0000;stroke-dasharray:2,3.3;stroke-dashoffset:0;stroke-opacity:0.8;stroke-width:2;"/>
    </g>
    <g id="line2d_44">
     <g>
      <use style="fill:#ff0000;fill-opacity:0.8;stroke:#ff0000;stroke-opacity:0.8;" x="91" xlink:href="#mea2d6f05c9" y="64.34"/>
     </g>
    </g>
    <g id="text_16">
     <!-- epsilon-greedy-t1 -->
     <g transform="translate(109 67.84)scale(0.1 -0.1)">
      <defs>
       <path d="M 966 333 
C 1178 129 1466 -5 1773 -5 
C 2368 -5 2880 603 2880 1412 
C 2880 2159 2496 2816 1946 2816 
C 1626 2816 1242 2702 954 2472 
L 954 2765 
L 480 2765 
L 480 -1216 
L 966 -1216 
L 966 333 
z
M 966 2100 
C 1018 2176 1235 2415 1587 2415 
C 2035 2415 2394 1960 2394 1412 
C 2394 787 1958 384 1530 384 
C 1402 384 1267 415 1139 523 
C 966 674 966 768 966 857 
L 966 2100 
z
" id="CMSS17-70" transform="scale(0.015625)"/>
       <path d="M 947 4416 
L 474 4416 
L 474 0 
L 947 0 
L 947 4416 
z
" id="CMSS17-6c" transform="scale(0.015625)"/>
       <path d="M 2829 1356 
C 2829 2176 2221 2816 1504 2816 
C 768 2816 173 2157 173 1356 
C 173 544 787 -64 1498 -64 
C 2227 -64 2829 563 2829 1356 
z
M 1504 337 
C 1050 337 659 709 659 1408 
C 659 2151 1114 2427 1498 2427 
C 1914 2427 2342 2126 2342 1408 
C 2342 683 1926 337 1504 337 
z
" id="CMSS17-6f" transform="scale(0.015625)"/>
       <path d="M 2848 2808 
C 2483 2808 2170 2738 1914 2617 
C 1702 2777 1485 2808 1338 2808 
C 781 2808 358 2349 358 1814 
C 358 1468 550 1207 563 1195 
C 448 1035 384 863 384 672 
C 384 448 474 289 544 200 
C 211 -3 166 -314 166 -435 
C 166 -898 749 -1280 1498 -1280 
C 2253 -1280 2835 -898 2835 -428 
C 2835 448 1856 448 1587 448 
L 1069 448 
C 973 448 717 448 717 791 
C 717 921 774 1004 781 1010 
C 877 940 1075 832 1338 832 
C 1869 832 2310 1278 2310 1827 
C 2310 2132 2170 2355 2112 2432 
L 2131 2432 
C 2150 2432 2419 2432 2515 2432 
C 2720 2432 2739 2429 2918 2419 
L 2848 2808 
z
M 1338 1182 
C 1120 1182 813 1315 813 1823 
C 813 2375 1165 2464 1331 2464 
C 1549 2464 1856 2331 1856 1823 
C 1856 1271 1504 1182 1338 1182 
z
M 1581 -10 
C 1734 -10 2381 -10 2381 -442 
C 2381 -714 1984 -929 1504 -929 
C 1018 -929 621 -720 621 -435 
C 621 -403 621 -10 1062 -10 
L 1581 -10 
z
" id="CMSS17-67" transform="scale(0.015625)"/>
       <path d="M 954 1363 
C 954 1965 1395 2368 1958 2368 
L 1958 2789 
C 1549 2789 1165 2585 934 2253 
L 934 2758 
L 480 2758 
L 480 0 
L 954 0 
L 954 1363 
z
" id="CMSS17-72" transform="scale(0.015625)"/>
       <path d="M 2611 4416 
L 2138 4416 
L 2138 2438 
C 1939 2603 1613 2756 1254 2756 
C 672 2756 211 2131 211 1347 
C 211 562 666 -64 1235 -64 
C 1677 -64 1971 172 2125 306 
L 2125 -13 
L 2611 -13 
L 2611 4416 
z
M 2125 836 
C 2125 747 2125 653 1926 482 
C 1798 375 1645 325 1498 325 
C 1152 325 698 576 698 1340 
C 698 2134 1210 2368 1562 2368 
C 1798 2368 1990 2254 2125 2065 
L 2125 836 
z
" id="CMSS17-64" transform="scale(0.015625)"/>
       <path d="M 2675 2752 
L 2176 2752 
C 1632 1294 1446 702 1434 383 
L 1427 383 
C 1408 696 1126 1460 902 2007 
L 602 2752 
L 83 2752 
L 1216 13 
C 1146 -178 1043 -465 1011 -529 
C 870 -885 774 -885 672 -885 
C 646 -885 442 -885 211 -809 
L 250 -1229 
C 410 -1261 570 -1280 685 -1280 
C 845 -1280 1165 -1280 1459 -497 
L 2675 2752 
z
" id="CMSS17-79" transform="scale(0.015625)"/>
      </defs>
      <use transform="scale(0.996264)" xlink:href="#CMSS17-65"/>
      <use transform="translate(41.638822 0)scale(0.996264)" xlink:href="#CMSS17-70"/>
      <use transform="translate(89.843765 0)scale(0.996264)" xlink:href="#CMSS17-73"/>
      <use transform="translate(125.757307 0)scale(0.996264)" xlink:href="#CMSS17-69"/>
      <use transform="translate(147.93803 0)scale(0.996264)" xlink:href="#CMSS17-6c"/>
      <use transform="translate(170.118753 0)scale(0.996264)" xlink:href="#CMSS17-6f"/>
      <use transform="translate(216.962377 0)scale(0.996264)" xlink:href="#CMSS17-6e"/>
      <use transform="translate(265.16732 0)scale(0.996264)" xlink:href="#CMSS17-2d"/>
      <use transform="translate(296.396433 0)scale(0.996264)" xlink:href="#CMSS17-67"/>
      <use transform="translate(343.240056 0)scale(0.996264)" xlink:href="#CMSS17-72"/>
      <use transform="translate(375.149829 0)scale(0.996264)" xlink:href="#CMSS17-65"/>
      <use transform="translate(416.788651 0)scale(0.996264)" xlink:href="#CMSS17-65"/>
      <use transform="translate(458.427473 0)scale(0.996264)" xlink:href="#CMSS17-64"/>
      <use transform="translate(506.632416 0)scale(0.996264)" xlink:href="#CMSS17-79"/>
      <use transform="translate(549.632558 0)scale(0.996264)" xlink:href="#CMSS17-2d"/>
      <use transform="translate(580.86167 0)scale(0.996264)" xlink:href="#CMSS17-74"/>
      <use transform="translate(614.693237 0)scale(0.996264)" xlink:href="#CMSS17-31"/>
     </g>
    </g>
    <g id="line2d_45">
     <path d="M 81 78.277178 
L 101 78.277178 
" style="fill:none;stroke:#0000ff;stroke-dasharray:2,3.3;stroke-dashoffset:0;stroke-opacity:0.8;stroke-width:2;"/>
    </g>
    <g id="line2d_46">
     <g>
      <use style="fill:#0000ff;fill-opacity:0.8;stroke:#0000ff;stroke-opacity:0.8;" x="91" xlink:href="#m1f1de51ab4" y="78.277178"/>
     </g>
    </g>
    <g id="text_17">
     <!-- ucb-t1 -->
     <g transform="translate(109 81.777178)scale(0.1 -0.1)">
      <defs>
       <path d="M 2618 2739 
L 2131 2739 
L 2131 972 
C 2131 498 1786 306 1421 306 
C 998 306 960 447 960 709 
L 960 2739 
L 474 2739 
L 474 678 
C 474 179 646 -64 1088 -64 
C 1306 -64 1798 -13 2144 306 
L 2144 0 
L 2618 0 
L 2618 2739 
z
" id="CMSS17-75" transform="scale(0.015625)"/>
       <path d="M 954 4416 
L 480 4416 
L 480 -13 
L 966 -13 
L 966 274 
C 1210 38 1504 -64 1766 -64 
C 2381 -64 2880 549 2880 1352 
C 2880 2086 2496 2756 1926 2756 
C 1523 2756 1165 2591 954 2419 
L 954 4416 
z
M 966 2046 
C 1107 2222 1306 2368 1587 2368 
C 1965 2368 2394 2097 2394 1352 
C 2394 558 1882 325 1530 325 
C 1402 325 1267 356 1139 464 
C 966 615 966 709 966 797 
L 966 2046 
z
" id="CMSS17-62" transform="scale(0.015625)"/>
      </defs>
      <use transform="scale(0.996264)" xlink:href="#CMSS17-75"/>
      <use transform="translate(48.204943 0)scale(0.996264)" xlink:href="#CMSS17-63"/>
      <use transform="translate(89.843765 0)scale(0.996264)" xlink:href="#CMSS17-62"/>
      <use transform="translate(138.048708 0)scale(0.996264)" xlink:href="#CMSS17-2d"/>
      <use transform="translate(169.277821 0)scale(0.996264)" xlink:href="#CMSS17-74"/>
      <use transform="translate(203.109388 0)scale(0.996264)" xlink:href="#CMSS17-31"/>
     </g>
    </g>
    <g id="line2d_47">
     <path d="M 81 92.214357 
L 101 92.214357 
" style="fill:none;stroke:#008000;stroke-dasharray:2,3.3;stroke-dashoffset:0;stroke-opacity:0.8;stroke-width:2;"/>
    </g>
    <g id="line2d_48">
     <g>
      <use style="fill:#008000;fill-opacity:0.8;stroke:#008000;stroke-opacity:0.8;" x="91" xlink:href="#m68f71b1622" y="92.214357"/>
     </g>
    </g>
    <g id="text_18">
     <!-- kl-ucb-t1 -->
     <g transform="translate(109 95.714357)scale(0.1 -0.1)">
      <use transform="scale(0.996264)" xlink:href="#CMSS17-6b"/>
      <use transform="translate(45.602489 0)scale(0.996264)" xlink:href="#CMSS17-6c"/>
      <use transform="translate(67.783212 0)scale(0.996264)" xlink:href="#CMSS17-2d"/>
      <use transform="translate(99.012325 0)scale(0.996264)" xlink:href="#CMSS17-75"/>
      <use transform="translate(147.217268 0)scale(0.996264)" xlink:href="#CMSS17-63"/>
      <use transform="translate(188.85609 0)scale(0.996264)" xlink:href="#CMSS17-62"/>
      <use transform="translate(237.061033 0)scale(0.996264)" xlink:href="#CMSS17-2d"/>
      <use transform="translate(268.290146 0)scale(0.996264)" xlink:href="#CMSS17-74"/>
      <use transform="translate(302.121713 0)scale(0.996264)" xlink:href="#CMSS17-31"/>
     </g>
    </g>
    <g id="line2d_49">
     <path d="M 81 106.151535 
L 101 106.151535 
" style="fill:none;stroke:#9932cc;stroke-dasharray:2,3.3;stroke-dashoffset:0;stroke-opacity:0.8;stroke-width:2;"/>
    </g>
    <g id="line2d_50">
     <g>
      <use style="fill:#9932cc;fill-opacity:0.8;stroke:#9932cc;stroke-opacity:0.8;" x="91" xlink:href="#m854dcaf563" y="106.151535"/>
     </g>
    </g>
    <g id="text_19">
     <!-- thompson-sampling-t1 -->
     <g transform="translate(109 109.651535)scale(0.1 -0.1)">
      <defs>
       <path d="M 2618 1891 
C 2618 2292 2522 2820 1798 2820 
C 1395 2820 1133 2623 947 2407 
L 947 4448 
L 474 4448 
L 474 32 
L 960 32 
L 960 1573 
C 960 1973 1114 2432 1549 2432 
C 2112 2432 2131 2056 2131 1839 
L 2131 32 
L 2618 32 
L 2618 1891 
z
" id="CMSS17-68" transform="scale(0.015625)"/>
       <path d="M 4288 1877 
C 4288 2308 4179 2816 3462 2816 
C 2982 2816 2694 2516 2566 2331 
C 2451 2670 2182 2816 1798 2816 
C 1363 2816 1088 2568 941 2389 
L 941 2758 
L 474 2758 
L 474 0 
L 960 0 
L 960 1559 
C 960 1939 1101 2428 1555 2428 
C 2138 2428 2138 2016 2138 1829 
L 2138 0 
L 2624 0 
L 2624 1559 
C 2624 1939 2765 2428 3219 2428 
C 3802 2428 3802 2016 3802 1829 
L 3802 0 
L 4288 0 
L 4288 1877 
z
" id="CMSS17-6d" transform="scale(0.015625)"/>
      </defs>
      <use transform="scale(0.996264)" xlink:href="#CMSS17-74"/>
      <use transform="translate(33.831567 0)scale(0.996264)" xlink:href="#CMSS17-68"/>
      <use transform="translate(82.03651 0)scale(0.996264)" xlink:href="#CMSS17-6f"/>
      <use transform="translate(128.880133 0)scale(0.996264)" xlink:href="#CMSS17-6d"/>
      <use transform="translate(203.109388 0)scale(0.996264)" xlink:href="#CMSS17-70"/>
      <use transform="translate(251.314331 0)scale(0.996264)" xlink:href="#CMSS17-73"/>
      <use transform="translate(287.227873 0)scale(0.996264)" xlink:href="#CMSS17-6f"/>
      <use transform="translate(334.071496 0)scale(0.996264)" xlink:href="#CMSS17-6e"/>
      <use transform="translate(382.27644 0)scale(0.996264)" xlink:href="#CMSS17-2d"/>
      <use transform="translate(413.505552 0)scale(0.996264)" xlink:href="#CMSS17-73"/>
      <use transform="translate(449.419094 0)scale(0.996264)" xlink:href="#CMSS17-61"/>
      <use transform="translate(494.341015 0)scale(0.996264)" xlink:href="#CMSS17-6d"/>
      <use transform="translate(568.570269 0)scale(0.996264)" xlink:href="#CMSS17-70"/>
      <use transform="translate(616.775212 0)scale(0.996264)" xlink:href="#CMSS17-6c"/>
      <use transform="translate(638.955936 0)scale(0.996264)" xlink:href="#CMSS17-69"/>
      <use transform="translate(661.136659 0)scale(0.996264)" xlink:href="#CMSS17-6e"/>
      <use transform="translate(709.341602 0)scale(0.996264)" xlink:href="#CMSS17-67"/>
      <use transform="translate(756.185225 0)scale(0.996264)" xlink:href="#CMSS17-2d"/>
      <use transform="translate(787.414338 0)scale(0.996264)" xlink:href="#CMSS17-74"/>
      <use transform="translate(821.245905 0)scale(0.996264)" xlink:href="#CMSS17-31"/>
     </g>
    </g>
   </g>
  </g>
 </g>
 <defs>
  <clipPath id="pb4456aa472">
   <rect height="332.64" width="446.4" x="72" y="51.84"/>
  </clipPath>
 </defs>
</svg>
