<?xml version="1.0" encoding="utf-8" standalone="no"?>
<!DOCTYPE svg PUBLIC "-//W3C//DTD SVG 1.1//EN"
  "http://www.w3.org/Graphics/SVG/1.1/DTD/svg11.dtd">
<svg height="432pt" version="1.1" viewBox="0 0 576 432" width="576pt" xmlns="http://www.w3.org/2000/svg" xmlns:xlink="http://www.w3.org/1999/xlink">
 <metadata>
  <rdf:RDF xmlns:cc="http://creativecommons.org/ns#" xmlns:dc="http://purl.org/dc/elements/1.1/" xmlns:rdf="http://www.w3.org/1999/02/22-rdf-syntax-ns#">
   <cc:Work>
    <dc:type rdf:resource="http://purl.org/dc/dcmitype/StillImage"/>
    <dc:date>2021-09-08T22:26:40.044873</dc:date>
    <dc:format>image/svg+xml</dc:format>
    <dc:creator>
     <cc:Agent>
      <dc:title>Matplotlib v3.4.3, https://matplotlib.org/</dc:title>
     </cc:Agent>
    </dc:creator>
   </cc:Work>
  </rdf:RDF>
 </metadata>
 <defs>
  <style type="text/css">*{stroke-linecap:butt;stroke-linejoin:round;}</style>
 </defs>
 <g id="figure_1">
  <g id="patch_1">
   <path d="M 0 432 
L 576 432 
L 576 0 
L 0 0 
z
" style="fill:#ffffff;"/>
  </g>
  <g id="axes_1">
   <g id="patch_2">
    <path d="M 72 384.48 
L 518.4 384.48 
L 518.4 51.84 
L 72 51.84 
z
" style="fill:#ffffff;"/>
   </g>
   <g id="matplotlib.axis_1">
    <g id="xtick_1">
     <g id="line2d_1">
      <defs>
       <path d="M 0 0 
L 0 3.5 
" id="me5dfec0702" style="stroke:#000000;stroke-width:0.8;"/>
      </defs>
      <g>
       <use style="stroke:#000000;stroke-width:0.8;" x="92.290909" xlink:href="#me5dfec0702" y="384.48"/>
      </g>
     </g>
     <g id="text_1">
      <!-- $\mathdefault{10^{2}}$ -->
      <g transform="translate(83.62074 400.474028)scale(0.13 -0.13)">
       <defs>
        <path d="M 1702 4058 
C 1702 4192 1696 4192 1606 4192 
C 1357 3916 979 3827 621 3827 
C 602 3827 570 3827 563 3808 
C 557 3795 557 3782 557 3648 
C 755 3648 1088 3686 1344 3839 
L 1344 461 
C 1344 236 1331 160 781 160 
L 589 160 
L 589 0 
C 896 0 1216 0 1523 0 
C 1830 0 2150 0 2458 0 
L 2458 160 
L 2266 160 
C 1715 160 1702 230 1702 458 
L 1702 4058 
z
" id="CMR17-31" transform="scale(0.015625)"/>
        <path d="M 2688 2025 
C 2688 2416 2682 3080 2413 3591 
C 2176 4039 1798 4198 1466 4198 
C 1158 4198 768 4058 525 3597 
C 269 3118 243 2524 243 2025 
C 243 1661 250 1106 448 619 
C 723 -39 1216 -128 1466 -128 
C 1760 -128 2208 -7 2470 600 
C 2662 1042 2688 1559 2688 2025 
z
M 1466 -26 
C 1056 -26 813 325 723 812 
C 653 1188 653 1738 653 2096 
C 653 2588 653 2997 736 3387 
C 858 3929 1216 4096 1466 4096 
C 1728 4096 2067 3923 2189 3400 
C 2272 3036 2278 2607 2278 2096 
C 2278 1680 2278 1169 2202 792 
C 2067 95 1690 -26 1466 -26 
z
" id="CMR17-30" transform="scale(0.015625)"/>
        <path d="M 2669 989 
L 2554 989 
C 2490 536 2438 459 2413 420 
C 2381 369 1920 369 1830 369 
L 602 369 
C 832 619 1280 1072 1824 1597 
C 2214 1967 2669 2402 2669 3035 
C 2669 3790 2067 4224 1395 4224 
C 691 4224 262 3604 262 3030 
C 262 2780 448 2748 525 2748 
C 589 2748 781 2787 781 3010 
C 781 3207 614 3264 525 3264 
C 486 3264 448 3258 422 3245 
C 544 3790 915 4058 1306 4058 
C 1862 4058 2227 3617 2227 3035 
C 2227 2479 1901 2000 1536 1584 
L 262 146 
L 262 0 
L 2515 0 
L 2669 989 
z
" id="CMR17-32" transform="scale(0.015625)"/>
       </defs>
       <use transform="scale(0.996264)" xlink:href="#CMR17-31"/>
       <use transform="translate(45.690477 0)scale(0.996264)" xlink:href="#CMR17-30"/>
       <use transform="translate(91.380954 36.153639)scale(0.697382)" xlink:href="#CMR17-32"/>
      </g>
     </g>
    </g>
    <g id="xtick_2">
     <g id="line2d_2">
      <g>
       <use style="stroke:#000000;stroke-width:0.8;" x="227.100791" xlink:href="#me5dfec0702" y="384.48"/>
      </g>
     </g>
     <g id="text_2">
      <!-- $\mathdefault{10^{3}}$ -->
      <g transform="translate(218.430622 400.474028)scale(0.13 -0.13)">
       <defs>
        <path d="M 1414 2157 
C 1984 2157 2234 1662 2234 1090 
C 2234 320 1824 25 1453 25 
C 1114 25 563 194 390 693 
C 422 680 454 680 486 680 
C 640 680 755 782 755 948 
C 755 1133 614 1216 486 1216 
C 378 1216 211 1165 211 926 
C 211 335 787 -128 1466 -128 
C 2176 -128 2720 430 2720 1085 
C 2720 1707 2208 2157 1600 2227 
C 2086 2328 2554 2756 2554 3329 
C 2554 3820 2048 4179 1472 4179 
C 890 4179 378 3829 378 3329 
C 378 3110 544 3072 627 3072 
C 762 3072 877 3155 877 3321 
C 877 3486 762 3569 627 3569 
C 602 3569 570 3569 544 3557 
C 730 3959 1235 4032 1459 4032 
C 1683 4032 2106 3925 2106 3320 
C 2106 3143 2080 2828 1862 2550 
C 1670 2304 1453 2304 1242 2284 
C 1210 2284 1062 2269 1037 2269 
C 992 2263 966 2257 966 2208 
C 966 2163 973 2157 1101 2157 
L 1414 2157 
z
" id="CMR17-33" transform="scale(0.015625)"/>
       </defs>
       <use transform="scale(0.996264)" xlink:href="#CMR17-31"/>
       <use transform="translate(45.690477 0)scale(0.996264)" xlink:href="#CMR17-30"/>
       <use transform="translate(91.380954 36.153639)scale(0.697382)" xlink:href="#CMR17-33"/>
      </g>
     </g>
    </g>
    <g id="xtick_3">
     <g id="line2d_3">
      <g>
       <use style="stroke:#000000;stroke-width:0.8;" x="361.910673" xlink:href="#me5dfec0702" y="384.48"/>
      </g>
     </g>
     <g id="text_3">
      <!-- $\mathdefault{10^{4}}$ -->
      <g transform="translate(353.240504 400.474028)scale(0.13 -0.13)">
       <defs>
        <path d="M 2150 4122 
C 2150 4256 2144 4256 2029 4256 
L 128 1254 
L 128 1088 
L 1779 1088 
L 1779 457 
C 1779 224 1766 160 1318 160 
L 1197 160 
L 1197 0 
C 1402 0 1747 0 1965 0 
C 2182 0 2528 0 2733 0 
L 2733 160 
L 2611 160 
C 2163 160 2150 224 2150 457 
L 2150 1088 
L 2803 1088 
L 2803 1254 
L 2150 1254 
L 2150 4122 
z
M 1798 3703 
L 1798 1254 
L 256 1254 
L 1798 3703 
z
" id="CMR17-34" transform="scale(0.015625)"/>
       </defs>
       <use transform="scale(0.996264)" xlink:href="#CMR17-31"/>
       <use transform="translate(45.690477 0)scale(0.996264)" xlink:href="#CMR17-30"/>
       <use transform="translate(91.380954 36.153639)scale(0.697382)" xlink:href="#CMR17-34"/>
      </g>
     </g>
    </g>
    <g id="xtick_4">
     <g id="line2d_4">
      <g>
       <use style="stroke:#000000;stroke-width:0.8;" x="496.720555" xlink:href="#me5dfec0702" y="384.48"/>
      </g>
     </g>
     <g id="text_4">
      <!-- $\mathdefault{10^{5}}$ -->
      <g transform="translate(488.050386 400.474028)scale(0.13 -0.13)">
       <defs>
        <path d="M 730 3692 
C 794 3666 1056 3584 1325 3584 
C 1920 3584 2246 3911 2432 4100 
C 2432 4157 2432 4192 2394 4192 
C 2387 4192 2374 4192 2323 4163 
C 2099 4058 1837 3973 1517 3973 
C 1325 3973 1037 3999 723 4139 
C 653 4171 640 4171 634 4171 
C 602 4171 595 4164 595 4037 
L 595 2203 
C 595 2089 595 2057 659 2057 
C 691 2057 704 2070 736 2114 
C 941 2401 1222 2522 1542 2522 
C 1766 2522 2246 2382 2246 1289 
C 2246 1085 2246 715 2054 421 
C 1894 159 1645 25 1370 25 
C 947 25 518 320 403 814 
C 429 807 480 795 506 795 
C 589 795 749 840 749 1038 
C 749 1210 627 1280 506 1280 
C 358 1280 262 1190 262 1011 
C 262 454 704 -128 1382 -128 
C 2042 -128 2669 440 2669 1264 
C 2669 2030 2170 2624 1549 2624 
C 1222 2624 947 2503 730 2274 
L 730 3692 
z
" id="CMR17-35" transform="scale(0.015625)"/>
       </defs>
       <use transform="scale(0.996264)" xlink:href="#CMR17-31"/>
       <use transform="translate(45.690477 0)scale(0.996264)" xlink:href="#CMR17-30"/>
       <use transform="translate(91.380954 36.153639)scale(0.697382)" xlink:href="#CMR17-35"/>
      </g>
     </g>
    </g>
    <g id="xtick_5">
     <g id="line2d_5">
      <defs>
       <path d="M 0 0 
L 0 2 
" id="m8f28a2ede5" style="stroke:#000000;stroke-width:0.6;"/>
      </defs>
      <g>
       <use style="stroke:#000000;stroke-width:0.6;" x="79.226482" xlink:href="#m8f28a2ede5" y="384.48"/>
      </g>
     </g>
    </g>
    <g id="xtick_6">
     <g id="line2d_6">
      <g>
       <use style="stroke:#000000;stroke-width:0.6;" x="86.122347" xlink:href="#m8f28a2ede5" y="384.48"/>
      </g>
     </g>
    </g>
    <g id="xtick_7">
     <g id="line2d_7">
      <g>
       <use style="stroke:#000000;stroke-width:0.6;" x="132.872727" xlink:href="#m8f28a2ede5" y="384.48"/>
      </g>
     </g>
    </g>
    <g id="xtick_8">
     <g id="line2d_8">
      <g>
       <use style="stroke:#000000;stroke-width:0.6;" x="156.611569" xlink:href="#m8f28a2ede5" y="384.48"/>
      </g>
     </g>
    </g>
    <g id="xtick_9">
     <g id="line2d_9">
      <g>
       <use style="stroke:#000000;stroke-width:0.6;" x="173.454545" xlink:href="#m8f28a2ede5" y="384.48"/>
      </g>
     </g>
    </g>
    <g id="xtick_10">
     <g id="line2d_10">
      <g>
       <use style="stroke:#000000;stroke-width:0.6;" x="186.518973" xlink:href="#m8f28a2ede5" y="384.48"/>
      </g>
     </g>
    </g>
    <g id="xtick_11">
     <g id="line2d_11">
      <g>
       <use style="stroke:#000000;stroke-width:0.6;" x="197.193387" xlink:href="#m8f28a2ede5" y="384.48"/>
      </g>
     </g>
    </g>
    <g id="xtick_12">
     <g id="line2d_12">
      <g>
       <use style="stroke:#000000;stroke-width:0.6;" x="206.218476" xlink:href="#m8f28a2ede5" y="384.48"/>
      </g>
     </g>
    </g>
    <g id="xtick_13">
     <g id="line2d_13">
      <g>
       <use style="stroke:#000000;stroke-width:0.6;" x="214.036364" xlink:href="#m8f28a2ede5" y="384.48"/>
      </g>
     </g>
    </g>
    <g id="xtick_14">
     <g id="line2d_14">
      <g>
       <use style="stroke:#000000;stroke-width:0.6;" x="220.932229" xlink:href="#m8f28a2ede5" y="384.48"/>
      </g>
     </g>
    </g>
    <g id="xtick_15">
     <g id="line2d_15">
      <g>
       <use style="stroke:#000000;stroke-width:0.6;" x="267.682609" xlink:href="#m8f28a2ede5" y="384.48"/>
      </g>
     </g>
    </g>
    <g id="xtick_16">
     <g id="line2d_16">
      <g>
       <use style="stroke:#000000;stroke-width:0.6;" x="291.421451" xlink:href="#m8f28a2ede5" y="384.48"/>
      </g>
     </g>
    </g>
    <g id="xtick_17">
     <g id="line2d_17">
      <g>
       <use style="stroke:#000000;stroke-width:0.6;" x="308.264427" xlink:href="#m8f28a2ede5" y="384.48"/>
      </g>
     </g>
    </g>
    <g id="xtick_18">
     <g id="line2d_18">
      <g>
       <use style="stroke:#000000;stroke-width:0.6;" x="321.328855" xlink:href="#m8f28a2ede5" y="384.48"/>
      </g>
     </g>
    </g>
    <g id="xtick_19">
     <g id="line2d_19">
      <g>
       <use style="stroke:#000000;stroke-width:0.6;" x="332.003269" xlink:href="#m8f28a2ede5" y="384.48"/>
      </g>
     </g>
    </g>
    <g id="xtick_20">
     <g id="line2d_20">
      <g>
       <use style="stroke:#000000;stroke-width:0.6;" x="341.028358" xlink:href="#m8f28a2ede5" y="384.48"/>
      </g>
     </g>
    </g>
    <g id="xtick_21">
     <g id="line2d_21">
      <g>
       <use style="stroke:#000000;stroke-width:0.6;" x="348.846246" xlink:href="#m8f28a2ede5" y="384.48"/>
      </g>
     </g>
    </g>
    <g id="xtick_22">
     <g id="line2d_22">
      <g>
       <use style="stroke:#000000;stroke-width:0.6;" x="355.742111" xlink:href="#m8f28a2ede5" y="384.48"/>
      </g>
     </g>
    </g>
    <g id="xtick_23">
     <g id="line2d_23">
      <g>
       <use style="stroke:#000000;stroke-width:0.6;" x="402.492491" xlink:href="#m8f28a2ede5" y="384.48"/>
      </g>
     </g>
    </g>
    <g id="xtick_24">
     <g id="line2d_24">
      <g>
       <use style="stroke:#000000;stroke-width:0.6;" x="426.231333" xlink:href="#m8f28a2ede5" y="384.48"/>
      </g>
     </g>
    </g>
    <g id="xtick_25">
     <g id="line2d_25">
      <g>
       <use style="stroke:#000000;stroke-width:0.6;" x="443.074309" xlink:href="#m8f28a2ede5" y="384.48"/>
      </g>
     </g>
    </g>
    <g id="xtick_26">
     <g id="line2d_26">
      <g>
       <use style="stroke:#000000;stroke-width:0.6;" x="456.138737" xlink:href="#m8f28a2ede5" y="384.48"/>
      </g>
     </g>
    </g>
    <g id="xtick_27">
     <g id="line2d_27">
      <g>
       <use style="stroke:#000000;stroke-width:0.6;" x="466.813151" xlink:href="#m8f28a2ede5" y="384.48"/>
      </g>
     </g>
    </g>
    <g id="xtick_28">
     <g id="line2d_28">
      <g>
       <use style="stroke:#000000;stroke-width:0.6;" x="475.83824" xlink:href="#m8f28a2ede5" y="384.48"/>
      </g>
     </g>
    </g>
    <g id="xtick_29">
     <g id="line2d_29">
      <g>
       <use style="stroke:#000000;stroke-width:0.6;" x="483.656128" xlink:href="#m8f28a2ede5" y="384.48"/>
      </g>
     </g>
    </g>
    <g id="xtick_30">
     <g id="line2d_30">
      <g>
       <use style="stroke:#000000;stroke-width:0.6;" x="490.551993" xlink:href="#m8f28a2ede5" y="384.48"/>
      </g>
     </g>
    </g>
    <g id="text_5">
     <!-- \textbf{Horizons (log-scale)} -->
     <g transform="translate(222.691489 418.947508)scale(0.16 -0.16)">
      <defs>
       <path d="M 4493 4170 
C 4493 4377 4448 4480 4186 4480 
L 3859 4480 
C 3616 4480 3552 4396 3552 4169 
L 3552 2624 
L 1523 2624 
L 1523 4169 
C 1523 4377 1478 4480 1216 4480 
L 890 4480 
C 659 4480 582 4409 582 4170 
L 582 302 
C 582 70 653 -8 890 -8 
L 1216 -8 
C 1459 -8 1523 76 1523 301 
L 1523 2016 
L 3552 2016 
L 3552 301 
C 3552 95 3597 -8 3859 -8 
L 4186 -8 
C 4429 -8 4493 76 4493 302 
L 4493 4170 
z
" id="CMSSBX10-48" transform="scale(0.015625)"/>
       <path d="M 3315 1459 
C 3315 2517 2803 3072 1760 3072 
C 691 3072 198 2497 198 1459 
C 198 407 749 -64 1754 -64 
C 2758 -64 3315 401 3315 1459 
z
M 1760 440 
C 1069 440 1069 1020 1069 1536 
C 1069 2033 1069 2606 1754 2606 
C 2445 2606 2445 2039 2445 1536 
C 2445 1027 2445 440 1760 440 
z
" id="CMSSBX10-6f" transform="scale(0.015625)"/>
       <path d="M 1242 1496 
C 1242 2115 1747 2368 2150 2368 
C 2266 2368 2278 2368 2278 2555 
L 2278 2860 
C 2278 2989 2278 3034 2163 3034 
C 1984 3034 1517 2970 1216 2271 
L 1210 2271 
L 1210 2690 
C 1210 2897 1165 3001 902 3001 
L 698 3001 
C 467 3001 390 2930 390 2690 
L 390 310 
C 390 78 461 0 698 0 
L 934 0 
C 1178 0 1242 84 1242 312 
L 1242 1496 
z
" id="CMSSBX10-72" transform="scale(0.015625)"/>
       <path d="M 653 4480 
C 448 4480 346 4441 346 4182 
L 346 3885 
C 346 3678 410 3594 646 3594 
L 979 3594 
C 1286 3594 1286 3730 1286 4034 
C 1286 4344 1286 4480 979 4480 
L 653 4480 
z
M 1242 2634 
C 1242 2841 1197 2944 934 2944 
L 698 2944 
C 467 2944 390 2873 390 2634 
L 390 292 
C 390 60 461 -18 698 -18 
L 934 -18 
C 1178 -18 1242 66 1242 292 
L 1242 2634 
z
" id="CMSSBX10-69" transform="scale(0.015625)"/>
       <path d="M 2726 2483 
C 2790 2568 2803 2600 2803 2703 
C 2803 2975 2605 2975 2496 2975 
L 602 2975 
C 518 2975 294 2975 294 2732 
C 294 2496 499 2496 672 2496 
C 877 2496 1395 2496 1600 2496 
L 1837 2496 
L 275 493 
C 211 407 198 375 198 272 
C 198 0 397 0 506 0 
L 2515 0 
C 2598 0 2822 0 2822 236 
C 2822 479 2624 479 2438 479 
C 2118 479 1779 479 1459 479 
L 1165 479 
L 2726 2483 
z
" id="CMSSBX10-7a" transform="scale(0.015625)"/>
       <path d="M 3200 2096 
C 3200 2761 2918 3025 2266 3025 
C 1594 3025 1306 2535 1222 2360 
L 1216 2360 
L 1216 2687 
C 1216 2896 1171 3001 909 3001 
L 691 3001 
C 461 3001 384 2930 384 2690 
L 384 310 
C 384 78 454 0 691 0 
L 947 0 
C 1190 0 1254 84 1254 309 
L 1254 1735 
C 1254 2295 1626 2560 1958 2560 
C 2266 2560 2330 2411 2330 2082 
L 2330 309 
C 2330 103 2374 0 2637 0 
L 2893 0 
C 3136 0 3200 84 3200 309 
L 3200 2096 
z
" id="CMSSBX10-6e" transform="scale(0.015625)"/>
       <path d="M 2534 902 
C 2534 1267 2342 1496 2227 1600 
C 1971 1836 1747 1875 1478 1927 
C 1126 1992 870 2045 870 2299 
C 870 2566 1082 2619 1331 2619 
C 1760 2619 1990 2456 2157 2313 
C 2221 2248 2234 2248 2259 2248 
C 2323 2248 2336 2306 2342 2332 
C 2355 2384 2419 2747 2419 2779 
C 2419 2884 2080 2975 2010 3000 
C 1754 3072 1549 3072 1382 3072 
C 1094 3072 237 3072 237 2145 
C 237 1827 378 1633 550 1477 
C 774 1270 1024 1225 1389 1154 
C 1574 1121 1901 1062 1901 778 
C 1901 473 1651 427 1402 427 
C 1120 427 762 512 461 877 
C 429 909 410 928 371 928 
C 307 928 294 871 288 832 
C 275 743 198 378 198 313 
C 198 198 672 51 678 45 
C 1030 -64 1293 -64 1402 -64 
C 1728 -64 2534 -64 2534 902 
z
" id="CMSSBX10-73" transform="scale(0.015625)"/>
       <path d="M 2054 4864 
C 1939 4864 1926 4864 1811 4760 
C 1043 4107 550 3002 550 1632 
C 550 849 710 -501 1779 -1477 
C 1914 -1600 1926 -1600 2054 -1600 
L 2170 -1600 
C 2272 -1600 2342 -1600 2342 -1516 
C 2342 -1496 2342 -1483 2266 -1399 
C 1862 -901 1421 -107 1421 1632 
C 1421 3532 1952 4281 2304 4708 
C 2330 4741 2342 4754 2342 4779 
C 2342 4864 2272 4864 2170 4864 
L 2054 4864 
z
" id="CMSSBX10-28" transform="scale(0.015625)"/>
       <path d="M 1242 4170 
C 1242 4377 1197 4480 934 4480 
L 698 4480 
C 467 4480 390 4409 390 4170 
L 390 302 
C 390 70 461 -8 698 -8 
L 934 -8 
C 1178 -8 1242 76 1242 302 
L 1242 4170 
z
" id="CMSSBX10-6c" transform="scale(0.015625)"/>
       <path d="M 1280 577 
C 1050 577 960 577 870 656 
C 845 681 736 779 736 949 
C 736 994 742 1007 749 1046 
C 1050 878 1427 878 1562 878 
C 1830 878 2848 878 2848 1950 
C 2848 2326 2707 2553 2650 2624 
C 2758 2624 2982 2624 3245 2553 
C 3270 2540 3315 2527 3334 2527 
C 3386 2527 3418 2566 3418 2611 
C 3418 2637 3386 2792 3373 2857 
C 3347 3012 3347 3025 3232 3025 
C 3034 3025 2714 2948 2470 2799 
C 2170 2999 1837 3025 1562 3025 
C 1293 3025 275 3025 275 1954 
C 275 1694 346 1370 589 1156 
C 416 915 416 663 416 630 
C 416 507 454 293 589 118 
C 493 79 160 -37 160 -451 
C 160 -652 256 -988 659 -1176 
C 1024 -1344 1453 -1344 1754 -1344 
C 2131 -1344 3354 -1344 3354 -429 
C 3354 577 2451 577 1587 577 
L 1280 577 
z
M 1562 1344 
C 1114 1344 1094 1591 1094 1949 
C 1094 2306 1114 2560 1562 2560 
C 2010 2560 2029 2313 2029 1955 
C 2029 1597 2010 1344 1562 1344 
z
M 1907 -128 
C 2426 -128 2694 -217 2694 -448 
C 2694 -879 1965 -879 1760 -879 
C 1504 -879 819 -879 819 -430 
C 819 -128 1018 -128 1165 -128 
L 1907 -128 
z
" id="CMSSBX10-67" transform="scale(0.015625)"/>
       <path d="M 1645 1280 
C 1722 1280 1952 1280 1952 1513 
C 1952 1746 1722 1746 1645 1746 
L 384 1746 
C 307 1746 77 1746 77 1513 
C 77 1280 307 1280 384 1280 
L 1645 1280 
z
" id="CMSSBX10-2d" transform="scale(0.015625)"/>
       <path d="M 2925 330 
C 2925 402 2899 698 2886 782 
C 2886 801 2874 866 2810 866 
C 2784 866 2771 866 2707 801 
C 2598 704 2298 440 1773 440 
C 1107 440 1107 1092 1107 1503 
C 1107 2026 1139 2568 1792 2568 
C 2208 2568 2381 2464 2611 2271 
C 2688 2200 2701 2200 2726 2200 
C 2790 2200 2803 2258 2810 2284 
C 2822 2336 2886 2697 2886 2729 
C 2886 2787 2842 2813 2733 2865 
C 2426 3007 2234 3072 1786 3072 
C 832 3072 237 2620 237 1491 
C 237 420 787 -64 1754 -64 
C 1926 -64 2310 -64 2739 159 
C 2918 258 2925 265 2925 330 
z
" id="CMSSBX10-63" transform="scale(0.015625)"/>
       <path d="M 2970 2050 
C 2970 3072 1997 3072 1677 3072 
C 1376 3072 1056 3046 627 2868 
C 493 2811 461 2792 461 2722 
C 461 2677 499 2300 506 2248 
C 512 2209 544 2177 589 2177 
C 621 2177 640 2196 659 2216 
C 934 2508 1254 2651 1651 2651 
C 1997 2651 2099 2435 2099 2049 
L 2099 1820 
C 1875 1820 198 1820 198 868 
C 198 415 557 -64 1120 -64 
C 1338 -64 1818 1 2118 447 
L 2118 317 
C 2118 110 2163 7 2426 7 
L 2662 7 
C 2906 7 2970 91 2970 317 
L 2970 2050 
z
M 2099 988 
C 2099 402 1491 402 1472 402 
C 1203 402 1030 639 1030 889 
C 1030 1536 1920 1536 2099 1536 
L 2099 988 
z
" id="CMSSBX10-61" transform="scale(0.015625)"/>
       <path d="M 2758 1385 
C 2906 1385 3066 1385 3066 1678 
C 3066 2514 2682 3072 1728 3072 
C 704 3072 198 2491 198 1510 
C 198 452 806 -64 1811 -64 
C 2054 -64 2419 -32 2842 182 
C 2982 253 3027 272 3027 350 
C 3027 395 3008 582 3002 633 
C 2976 833 2970 839 2912 839 
C 2886 839 2874 839 2803 775 
C 2426 447 2042 402 1837 402 
C 1114 402 1037 974 1018 1385 
L 2758 1385 
z
M 1024 1728 
C 1043 2122 1171 2606 1728 2606 
C 2240 2606 2336 2231 2355 1728 
L 1024 1728 
z
" id="CMSSBX10-65" transform="scale(0.015625)"/>
       <path d="M 563 4864 
C 461 4864 390 4864 390 4780 
C 390 4761 390 4748 467 4664 
C 864 4166 1312 3372 1312 1632 
C 1312 -262 781 -1011 429 -1445 
C 390 -1490 390 -1503 390 -1516 
C 390 -1600 461 -1600 563 -1600 
L 678 -1600 
C 794 -1600 806 -1600 922 -1496 
C 1690 -843 2182 262 2182 1632 
C 2182 2413 2022 3765 954 4741 
C 819 4864 806 4864 678 4864 
L 563 4864 
z
" id="CMSSBX10-29" transform="scale(0.015625)"/>
      </defs>
      <use transform="scale(0.996264)" xlink:href="#CMSSBX10-48"/>
      <use transform="translate(79.14808 0)scale(0.996264)" xlink:href="#CMSSBX10-6f"/>
      <use transform="translate(130.898748 0)scale(0.996264)" xlink:href="#CMSSBX10-72"/>
      <use transform="translate(167.982158 0)scale(0.996264)" xlink:href="#CMSSBX10-69"/>
      <use transform="translate(193.442377 0)scale(0.996264)" xlink:href="#CMSSBX10-7a"/>
      <use transform="translate(240.903573 0)scale(0.996264)" xlink:href="#CMSSBX10-6f"/>
      <use transform="translate(295.698397 0)scale(0.996264)" xlink:href="#CMSSBX10-6e"/>
      <use transform="translate(351.600185 0)scale(0.996264)" xlink:href="#CMSSBX10-73"/>
      <use transform="translate(430.139434 0)scale(0.996264)" xlink:href="#CMSSBX10-28"/>
      <use transform="translate(472.757631 0)scale(0.996264)" xlink:href="#CMSSBX10-6c"/>
      <use transform="translate(498.217849 0)scale(0.996264)" xlink:href="#CMSSBX10-6f"/>
      <use transform="translate(553.012674 0)scale(0.996264)" xlink:href="#CMSSBX10-67"/>
      <use transform="translate(607.807499 0)scale(0.996264)" xlink:href="#CMSSBX10-2d"/>
      <use transform="translate(644.337382 0)scale(0.996264)" xlink:href="#CMSSBX10-73"/>
      <use transform="translate(686.346747 0)scale(0.996264)" xlink:href="#CMSSBX10-63"/>
      <use transform="translate(735.053258 0)scale(0.996264)" xlink:href="#CMSSBX10-61"/>
      <use transform="translate(787.357453 0)scale(0.996264)" xlink:href="#CMSSBX10-6c"/>
      <use transform="translate(812.817672 0)scale(0.996264)" xlink:href="#CMSSBX10-65"/>
      <use transform="translate(863.738124 0)scale(0.996264)" xlink:href="#CMSSBX10-29"/>
     </g>
    </g>
   </g>
   <g id="matplotlib.axis_2">
    <g id="ytick_1">
     <g id="line2d_31">
      <defs>
       <path d="M 0 0 
L -3.5 0 
" id="me574202075" style="stroke:#000000;stroke-width:0.8;"/>
      </defs>
      <g>
       <use style="stroke:#000000;stroke-width:0.8;" x="72" xlink:href="#me574202075" y="353.04863"/>
      </g>
     </g>
     <g id="text_6">
      <!-- $\mathdefault{10}$ -->
      <g transform="translate(52.318521 357.545644)scale(0.13 -0.13)">
       <use transform="scale(0.996264)" xlink:href="#CMR17-31"/>
       <use transform="translate(45.690477 0)scale(0.996264)" xlink:href="#CMR17-30"/>
      </g>
     </g>
    </g>
    <g id="ytick_2">
     <g id="line2d_32">
      <g>
       <use style="stroke:#000000;stroke-width:0.8;" x="72" xlink:href="#me574202075" y="313.069783"/>
      </g>
     </g>
     <g id="text_7">
      <!-- $\mathdefault{15}$ -->
      <g transform="translate(52.318521 317.566797)scale(0.13 -0.13)">
       <use transform="scale(0.996264)" xlink:href="#CMR17-31"/>
       <use transform="translate(45.690477 0)scale(0.996264)" xlink:href="#CMR17-35"/>
      </g>
     </g>
    </g>
    <g id="ytick_3">
     <g id="line2d_33">
      <g>
       <use style="stroke:#000000;stroke-width:0.8;" x="72" xlink:href="#me574202075" y="273.090936"/>
      </g>
     </g>
     <g id="text_8">
      <!-- $\mathdefault{20}$ -->
      <g transform="translate(52.318521 277.58795)scale(0.13 -0.13)">
       <use transform="scale(0.996264)" xlink:href="#CMR17-32"/>
       <use transform="translate(45.690477 0)scale(0.996264)" xlink:href="#CMR17-30"/>
      </g>
     </g>
    </g>
    <g id="ytick_4">
     <g id="line2d_34">
      <g>
       <use style="stroke:#000000;stroke-width:0.8;" x="72" xlink:href="#me574202075" y="233.112089"/>
      </g>
     </g>
     <g id="text_9">
      <!-- $\mathdefault{25}$ -->
      <g transform="translate(52.318521 237.609103)scale(0.13 -0.13)">
       <use transform="scale(0.996264)" xlink:href="#CMR17-32"/>
       <use transform="translate(45.690477 0)scale(0.996264)" xlink:href="#CMR17-35"/>
      </g>
     </g>
    </g>
    <g id="ytick_5">
     <g id="line2d_35">
      <g>
       <use style="stroke:#000000;stroke-width:0.8;" x="72" xlink:href="#me574202075" y="193.133242"/>
      </g>
     </g>
     <g id="text_10">
      <!-- $\mathdefault{30}$ -->
      <g transform="translate(52.318521 197.630256)scale(0.13 -0.13)">
       <use transform="scale(0.996264)" xlink:href="#CMR17-33"/>
       <use transform="translate(45.690477 0)scale(0.996264)" xlink:href="#CMR17-30"/>
      </g>
     </g>
    </g>
    <g id="ytick_6">
     <g id="line2d_36">
      <g>
       <use style="stroke:#000000;stroke-width:0.8;" x="72" xlink:href="#me574202075" y="153.154395"/>
      </g>
     </g>
     <g id="text_11">
      <!-- $\mathdefault{35}$ -->
      <g transform="translate(52.318521 157.651409)scale(0.13 -0.13)">
       <use transform="scale(0.996264)" xlink:href="#CMR17-33"/>
       <use transform="translate(45.690477 0)scale(0.996264)" xlink:href="#CMR17-35"/>
      </g>
     </g>
    </g>
    <g id="ytick_7">
     <g id="line2d_37">
      <g>
       <use style="stroke:#000000;stroke-width:0.8;" x="72" xlink:href="#me574202075" y="113.175547"/>
      </g>
     </g>
     <g id="text_12">
      <!-- $\mathdefault{40}$ -->
      <g transform="translate(52.318521 117.672561)scale(0.13 -0.13)">
       <use transform="scale(0.996264)" xlink:href="#CMR17-34"/>
       <use transform="translate(45.690477 0)scale(0.996264)" xlink:href="#CMR17-30"/>
      </g>
     </g>
    </g>
    <g id="ytick_8">
     <g id="line2d_38">
      <g>
       <use style="stroke:#000000;stroke-width:0.8;" x="72" xlink:href="#me574202075" y="73.1967"/>
      </g>
     </g>
     <g id="text_13">
      <!-- $\mathdefault{45}$ -->
      <g transform="translate(52.318521 77.693714)scale(0.13 -0.13)">
       <use transform="scale(0.996264)" xlink:href="#CMR17-34"/>
       <use transform="translate(45.690477 0)scale(0.996264)" xlink:href="#CMR17-35"/>
      </g>
     </g>
    </g>
    <g id="text_14">
     <!-- \textbf{HIGHS-REGRET (Averaged over 50 runs)} -->
     <g transform="translate(44.333465 372.156723)rotate(-90)scale(0.16 -0.16)">
      <defs>
       <path d="M 1530 4170 
C 1530 4377 1485 4480 1222 4480 
L 896 4480 
C 666 4480 589 4409 589 4170 
L 589 302 
C 589 70 659 -8 896 -8 
L 1222 -8 
C 1466 -8 1530 76 1530 302 
L 1530 4170 
z
" id="CMSSBX10-49" transform="scale(0.015625)"/>
       <path d="M 4224 2002 
C 4224 2028 4205 2086 4147 2086 
L 2835 2086 
C 2784 2086 2739 2073 2739 1996 
L 2739 1537 
C 2739 1498 2771 1472 2810 1472 
L 3347 1472 
L 3347 654 
C 3290 615 2861 577 2765 577 
C 1690 577 1338 1254 1338 2247 
C 1338 3207 1683 3904 2726 3904 
C 3270 3904 3533 3768 3910 3412 
C 3930 3393 3949 3386 3968 3386 
C 4000 3386 4032 3412 4045 3470 
L 4160 4130 
C 4166 4162 4173 4201 4115 4234 
C 3923 4337 3450 4550 2765 4550 
C 1069 4550 397 3679 397 2247 
C 397 652 1235 -64 2726 -64 
C 3405 -64 4045 151 4224 299 
L 4224 2002 
z
" id="CMSSBX10-47" transform="scale(0.015625)"/>
       <path d="M 1728 2867 
C 1587 2899 1190 3049 1190 3418 
C 1190 3968 1734 3968 1952 3968 
C 2310 3968 2630 3884 2944 3574 
C 3046 3477 3053 3471 3078 3471 
C 3117 3471 3149 3490 3168 3587 
L 3264 4152 
C 3277 4203 3277 4216 3277 4236 
C 3277 4288 3270 4295 3110 4380 
C 2656 4608 2278 4641 1952 4641 
C 1382 4641 390 4505 390 3290 
C 390 2829 627 2531 749 2401 
C 1075 2063 1376 1998 1875 1882 
C 2234 1798 2374 1765 2515 1635 
C 2579 1571 2714 1434 2714 1187 
C 2714 577 2163 577 1952 577 
C 1414 577 947 795 627 1083 
C 550 1159 538 1159 512 1159 
C 474 1159 442 1140 422 1042 
L 326 476 
C 314 424 314 411 314 392 
C 314 255 979 21 1011 8 
C 1440 -128 1786 -128 1952 -128 
C 2912 -128 3514 305 3514 1308 
C 3514 2033 2982 2576 2342 2725 
L 1728 2867 
z
" id="CMSSBX10-53" transform="scale(0.015625)"/>
       <path d="M 3091 2059 
C 3494 2156 4102 2402 4102 3205 
C 4102 4480 2714 4480 2426 4480 
L 890 4480 
C 659 4480 582 4409 582 4170 
L 582 298 
C 582 66 653 -12 890 -12 
L 1197 -12 
C 1440 -12 1504 71 1504 296 
L 1504 1984 
L 2214 1984 
L 3264 142 
C 3354 -12 3424 -12 3565 -12 
L 3942 -12 
C 4070 -12 4179 -12 4179 181 
L 3091 2059 
z
M 1504 2450 
L 1504 3924 
L 2336 3924 
C 3078 3924 3213 3623 3213 3191 
C 3213 2804 3123 2450 2336 2450 
L 1504 2450 
z
" id="CMSSBX10-52" transform="scale(0.015625)"/>
       <path d="M 1523 2016 
L 3206 2016 
C 3405 2016 3514 2062 3514 2320 
C 3514 2560 3430 2624 3206 2624 
L 1523 2624 
L 1523 3814 
L 1837 3814 
C 2336 3814 2842 3814 3341 3814 
C 3565 3814 3712 3814 3712 4122 
L 3712 4173 
C 3712 4377 3667 4480 3405 4480 
L 890 4480 
C 659 4480 582 4409 582 4170 
L 582 316 
C 582 84 653 6 890 6 
L 3501 6 
C 3744 6 3808 88 3808 310 
L 3808 400 
C 3808 704 3661 704 3450 704 
C 3117 704 2790 704 2458 704 
C 2298 704 1638 704 1523 704 
L 1523 2016 
z
" id="CMSSBX10-45" transform="scale(0.015625)"/>
       <path d="M 1875 3776 
L 1875 308 
C 1875 78 1946 0 2182 0 
L 2509 0 
C 2752 0 2816 84 2816 308 
L 2816 3776 
C 3098 3776 3814 3776 4096 3776 
C 4275 3776 4429 3776 4429 4083 
L 4429 4135 
C 4429 4340 4384 4443 4122 4443 
L 563 4443 
C 333 4443 256 4372 256 4135 
L 256 4083 
C 256 3776 410 3776 589 3776 
L 1875 3776 
z
" id="CMSSBX10-54" transform="scale(0.015625)"/>
       <path d="M 3034 4202 
C 2938 4480 2752 4480 2624 4480 
L 2061 4480 
C 1933 4480 1747 4480 1651 4202 
L 301 303 
C 269 220 269 207 269 175 
C 269 0 429 0 518 0 
L 749 0 
C 864 0 1062 0 1152 254 
L 1402 960 
L 3174 960 
L 3392 350 
C 3469 127 3514 0 3821 0 
L 4166 0 
C 4256 0 4416 0 4416 172 
C 4416 204 4416 217 4384 301 
L 3034 4202 
z
M 2054 2891 
C 2150 3176 2234 3422 2285 3656 
L 2291 3656 
C 2323 3501 2323 3488 2374 3338 
L 2982 1516 
L 1594 1516 
L 2054 2891 
z
" id="CMSSBX10-41" transform="scale(0.015625)"/>
       <path d="M 2995 2671 
C 3027 2762 3027 2775 3027 2794 
C 3027 2976 2867 2976 2771 2976 
L 2637 2976 
C 2368 2976 2298 2879 2240 2697 
L 1606 734 
L 973 2697 
C 928 2833 883 2976 576 2976 
L 422 2976 
C 326 2976 166 2976 166 2794 
C 166 2775 166 2762 198 2670 
L 960 273 
C 1050 0 1248 0 1363 0 
L 1830 0 
C 1946 0 2144 0 2234 273 
L 2995 2671 
z
" id="CMSSBX10-76" transform="scale(0.015625)"/>
       <path d="M 3194 4170 
C 3194 4377 3149 4480 2886 4480 
L 2650 4480 
C 2406 4480 2342 4396 2342 4170 
L 2342 2702 
C 2054 2980 1734 3025 1536 3025 
C 237 3025 237 1782 237 1465 
C 237 1167 237 -82 1504 -82 
C 1773 -82 2048 -5 2323 294 
C 2323 57 2413 -8 2630 -8 
L 2886 -8 
C 3130 -8 3194 76 3194 302 
L 3194 4170 
z
M 2323 798 
C 2323 687 2323 629 2138 500 
C 1978 396 1830 384 1754 384 
C 1107 384 1107 980 1107 1465 
C 1107 1951 1107 2560 1824 2560 
C 2010 2560 2182 2495 2323 2359 
L 2323 798 
z
" id="CMSSBX10-64" transform="scale(0.015625)"/>
       <path d="M 1363 3834 
L 2618 3834 
C 2918 3834 2925 3982 2925 4157 
C 2925 4325 2925 4480 2618 4480 
L 838 4480 
C 634 4480 531 4442 531 4181 
L 531 2188 
C 531 1895 678 1895 851 1895 
C 1018 1895 1075 1895 1165 2051 
C 1318 2303 1536 2432 1805 2432 
C 2221 2432 2221 1941 2221 1437 
C 2221 939 2221 448 1549 448 
C 1350 448 915 506 659 1017 
C 640 1056 621 1094 576 1094 
C 525 1094 512 1062 474 1010 
C 384 862 237 635 237 590 
C 237 538 653 -160 1568 -160 
C 2598 -160 3162 364 3162 1410 
C 3162 2264 2810 2898 1830 2898 
C 1670 2898 1517 2872 1363 2814 
L 1363 3834 
z
" id="CMSSBX10-35" transform="scale(0.015625)"/>
       <path d="M 3238 2223 
C 3238 3105 3238 4626 1760 4626 
C 275 4626 275 3118 275 2223 
C 275 1340 275 -128 1754 -128 
C 3238 -128 3238 1327 3238 2223 
z
M 1754 337 
C 1280 337 1210 929 1190 1103 
C 1146 1444 1146 2049 1146 2313 
C 1146 2692 1146 3104 1184 3420 
C 1203 3594 1267 4160 1754 4160 
C 2227 4160 2304 3620 2323 3490 
C 2368 3163 2368 2654 2368 2313 
C 2368 1946 2368 1444 2323 1090 
C 2304 923 2234 337 1754 337 
z
" id="CMSSBX10-30" transform="scale(0.015625)"/>
       <path d="M 3200 2652 
C 3200 2859 3155 2962 2893 2962 
L 2637 2962 
C 2394 2962 2330 2878 2330 2653 
L 2330 1124 
C 2330 698 2106 330 1651 330 
C 1293 330 1254 421 1254 763 
L 1254 2653 
C 1254 2859 1210 2962 947 2962 
L 691 2962 
C 461 2962 384 2891 384 2653 
L 384 820 
C 384 130 755 -64 1421 -64 
C 1594 -64 2048 -64 2349 485 
L 2349 314 
C 2349 104 2394 0 2656 0 
L 2893 0 
C 3136 0 3200 84 3200 310 
L 3200 2652 
z
" id="CMSSBX10-75" transform="scale(0.015625)"/>
      </defs>
      <use transform="scale(0.996264)" xlink:href="#CMSSBX10-48"/>
      <use transform="translate(79.14808 0)scale(0.996264)" xlink:href="#CMSSBX10-49"/>
      <use transform="translate(112.080264 0)scale(0.996264)" xlink:href="#CMSSBX10-47"/>
      <use transform="translate(185.14003 0)scale(0.996264)" xlink:href="#CMSSBX10-48"/>
      <use transform="translate(264.28811 0)scale(0.996264)" xlink:href="#CMSSBX10-53"/>
      <use transform="translate(325.171248 0)scale(0.996264)" xlink:href="#CMSSBX10-2d"/>
      <use transform="translate(361.701131 0)scale(0.996264)" xlink:href="#CMSSBX10-52"/>
      <use transform="translate(431.71674 0)scale(0.996264)" xlink:href="#CMSSBX10-45"/>
      <use transform="translate(495.644036 0)scale(0.996264)" xlink:href="#CMSSBX10-47"/>
      <use transform="translate(568.703802 0)scale(0.996264)" xlink:href="#CMSSBX10-52"/>
      <use transform="translate(638.719411 0)scale(0.996264)" xlink:href="#CMSSBX10-45"/>
      <use transform="translate(702.646706 0)scale(0.996264)" xlink:href="#CMSSBX10-54"/>
      <use transform="translate(812.236355 0)scale(0.996264)" xlink:href="#CMSSBX10-28"/>
      <use transform="translate(854.854552 0)scale(0.996264)" xlink:href="#CMSSBX10-41"/>
      <use transform="translate(927.914318 0)scale(0.996264)" xlink:href="#CMSSBX10-76"/>
      <use transform="translate(977.727793 0)scale(0.996264)" xlink:href="#CMSSBX10-65"/>
      <use transform="translate(1028.648245 0)scale(0.996264)" xlink:href="#CMSSBX10-72"/>
      <use transform="translate(1065.731656 0)scale(0.996264)" xlink:href="#CMSSBX10-61"/>
      <use transform="translate(1118.035851 0)scale(0.996264)" xlink:href="#CMSSBX10-67"/>
      <use transform="translate(1172.830675 0)scale(0.996264)" xlink:href="#CMSSBX10-65"/>
      <use transform="translate(1223.751128 0)scale(0.996264)" xlink:href="#CMSSBX10-64"/>
      <use transform="translate(1316.182799 0)scale(0.996264)" xlink:href="#CMSSBX10-6f"/>
      <use transform="translate(1370.977624 0)scale(0.996264)" xlink:href="#CMSSBX10-76"/>
      <use transform="translate(1420.791098 0)scale(0.996264)" xlink:href="#CMSSBX10-65"/>
      <use transform="translate(1471.71155 0)scale(0.996264)" xlink:href="#CMSSBX10-72"/>
      <use transform="translate(1545.324844 0)scale(0.996264)" xlink:href="#CMSSBX10-35"/>
      <use transform="translate(1600.119668 0)scale(0.996264)" xlink:href="#CMSSBX10-30"/>
      <use transform="translate(1691.444376 0)scale(0.996264)" xlink:href="#CMSSBX10-72"/>
      <use transform="translate(1728.527786 0)scale(0.996264)" xlink:href="#CMSSBX10-75"/>
      <use transform="translate(1784.429574 0)scale(0.996264)" xlink:href="#CMSSBX10-6e"/>
      <use transform="translate(1840.331362 0)scale(0.996264)" xlink:href="#CMSSBX10-73"/>
      <use transform="translate(1882.340728 0)scale(0.996264)" xlink:href="#CMSSBX10-29"/>
     </g>
    </g>
   </g>
   <g id="line2d_39">
    <path clip-path="url(#p0a51458a32)" d="M 92.290909 369.36 
L 173.454545 339.615738 
L 254.618182 339.775653 
L 335.781818 279.487552 
L 416.945455 197.450957 
L 498.109091 66.96 
" style="fill:none;stroke:#0000ff;stroke-dasharray:2,3.3;stroke-dashoffset:0;stroke-opacity:0.8;stroke-width:2;"/>
    <defs>
     <path d="M 0 3 
C 0.795609 3 1.55874 2.683901 2.12132 2.12132 
C 2.683901 1.55874 3 0.795609 3 0 
C 3 -0.795609 2.683901 -1.55874 2.12132 -2.12132 
C 1.55874 -2.683901 0.795609 -3 0 -3 
C -0.795609 -3 -1.55874 -2.683901 -2.12132 -2.12132 
C -2.683901 -1.55874 -3 -0.795609 -3 0 
C -3 0.795609 -2.683901 1.55874 -2.12132 2.12132 
C -1.55874 2.683901 -0.795609 3 0 3 
z
" id="m4ff31968c9" style="stroke:#0000ff;stroke-opacity:0.8;"/>
    </defs>
    <g clip-path="url(#p0a51458a32)">
     <use style="fill:#0000ff;fill-opacity:0.8;stroke:#0000ff;stroke-opacity:0.8;" x="92.290909" xlink:href="#m4ff31968c9" y="369.36"/>
     <use style="fill:#0000ff;fill-opacity:0.8;stroke:#0000ff;stroke-opacity:0.8;" x="173.454545" xlink:href="#m4ff31968c9" y="339.615738"/>
     <use style="fill:#0000ff;fill-opacity:0.8;stroke:#0000ff;stroke-opacity:0.8;" x="254.618182" xlink:href="#m4ff31968c9" y="339.775653"/>
     <use style="fill:#0000ff;fill-opacity:0.8;stroke:#0000ff;stroke-opacity:0.8;" x="335.781818" xlink:href="#m4ff31968c9" y="279.487552"/>
     <use style="fill:#0000ff;fill-opacity:0.8;stroke:#0000ff;stroke-opacity:0.8;" x="416.945455" xlink:href="#m4ff31968c9" y="197.450957"/>
     <use style="fill:#0000ff;fill-opacity:0.8;stroke:#0000ff;stroke-opacity:0.8;" x="498.109091" xlink:href="#m4ff31968c9" y="66.96"/>
    </g>
   </g>
   <g id="patch_3">
    <path d="M 72 384.48 
L 72 51.84 
" style="fill:none;stroke:#000000;stroke-linecap:square;stroke-linejoin:miter;stroke-width:0.8;"/>
   </g>
   <g id="patch_4">
    <path d="M 518.4 384.48 
L 518.4 51.84 
" style="fill:none;stroke:#000000;stroke-linecap:square;stroke-linejoin:miter;stroke-width:0.8;"/>
   </g>
   <g id="patch_5">
    <path d="M 72 384.48 
L 518.4 384.48 
" style="fill:none;stroke:#000000;stroke-linecap:square;stroke-linejoin:miter;stroke-width:0.8;"/>
   </g>
   <g id="patch_6">
    <path d="M 72 51.84 
L 518.4 51.84 
" style="fill:none;stroke:#000000;stroke-linecap:square;stroke-linejoin:miter;stroke-width:0.8;"/>
   </g>
   <g id="text_15">
    <!-- \textbf{alg-t4} - - ../instances/instances-task4/i-2.txt - - Threshold=0.6 -->
    <g transform="translate(76.048855 45.84)scale(0.18 -0.18)">
     <defs>
      <path d="M 1395 2496 
L 1965 2496 
C 2042 2496 2272 2496 2272 2729 
C 2272 2962 2042 2962 1965 2962 
L 1395 2962 
L 1395 3498 
C 1395 3705 1350 3808 1088 3808 
L 890 3808 
C 659 3808 582 3737 582 3498 
L 582 2962 
L 435 2962 
C 365 2962 128 2962 128 2729 
C 128 2496 358 2496 435 2496 
L 563 2496 
L 563 864 
C 563 213 794 -64 1235 -64 
C 1293 -64 1574 -64 1907 39 
C 2016 72 2387 188 2387 311 
C 2387 330 2374 376 2336 510 
C 2304 639 2291 678 2234 678 
C 2202 678 2195 671 2157 632 
C 2086 582 1914 440 1645 440 
C 1491 440 1395 550 1395 975 
L 1395 2496 
z
" id="CMSSBX10-74" transform="scale(0.015625)"/>
      <path d="M 250 1695 
C 198 1598 198 1579 198 1464 
L 198 1302 
C 198 1096 243 993 506 993 
L 1946 993 
L 1946 311 
C 1946 103 1990 0 2253 0 
L 2432 0 
C 2675 0 2739 84 2739 311 
L 2739 993 
L 3008 993 
C 3206 993 3315 1038 3315 1296 
C 3315 1536 3232 1600 3008 1600 
L 2739 1600 
L 2739 4171 
C 2739 4403 2669 4480 2432 4480 
L 1965 4480 
C 1843 4480 1747 4480 1670 4332 
L 250 1695 
z
M 864 1600 
C 1888 3494 1946 3693 1978 3803 
L 1984 3803 
L 1984 1600 
L 864 1600 
z
" id="CMSSBX10-34" transform="scale(0.015625)"/>
      <path d="M 3002 1472 
L 3002 1861 
L 0 1861 
L 0 1472 
L 3002 1472 
z
" id="CMSS17-7b" transform="scale(0.015625)"/>
      <path d="M 1088 510 
L 576 510 
L 576 0 
L 1088 0 
L 1088 510 
z
" id="CMSS17-2e" transform="scale(0.015625)"/>
      <path d="M 2637 4545 
C 2669 4627 2669 4640 2669 4653 
C 2669 4729 2611 4768 2560 4768 
C 2483 4768 2458 4717 2432 4640 
L 365 -1377 
C 333 -1460 333 -1473 333 -1486 
C 333 -1562 390 -1600 442 -1600 
C 518 -1600 544 -1549 570 -1473 
L 2637 4545 
z
" id="CMSS17-2f" transform="scale(0.015625)"/>
      <path d="M 979 4183 
L 442 4183 
L 442 3648 
L 979 3648 
L 979 4183 
z
M 947 2739 
L 474 2739 
L 474 0 
L 947 0 
L 947 2739 
z
" id="CMSS17-69" transform="scale(0.015625)"/>
      <path d="M 2618 1877 
C 2618 2283 2522 2816 1798 2816 
C 1389 2816 1120 2606 941 2389 
L 941 2758 
L 474 2758 
L 474 0 
L 960 0 
L 960 1559 
C 960 1964 1114 2428 1549 2428 
C 2112 2428 2131 2048 2131 1829 
L 2131 0 
L 2618 0 
L 2618 1877 
z
" id="CMSS17-6e" transform="scale(0.015625)"/>
      <path d="M 2061 2627 
C 1683 2807 1389 2807 1197 2807 
C 742 2807 198 2648 198 2003 
C 198 1359 902 1218 1094 1179 
C 1389 1122 1715 1058 1715 740 
C 1715 337 1254 337 1171 337 
C 915 337 563 407 243 638 
L 166 210 
C 531 0 883 -64 1178 -64 
C 1965 -64 2163 416 2163 781 
C 2163 1094 1984 1305 1862 1401 
C 1651 1568 1574 1587 1050 1696 
C 960 1709 646 1779 646 2066 
C 646 2432 1050 2432 1139 2432 
C 1555 2432 1811 2303 1984 2208 
L 2061 2627 
z
" id="CMSS17-73" transform="scale(0.015625)"/>
      <path d="M 1069 2368 
L 1901 2368 
L 1901 2737 
L 1069 2737 
L 1069 3520 
L 614 3520 
L 614 2737 
L 109 2737 
L 109 2368 
L 602 2368 
L 602 749 
C 602 384 685 -64 1107 -64 
C 1427 -64 1722 25 2003 172 
L 1901 548 
C 1747 414 1562 337 1363 337 
C 1082 337 1069 696 1069 856 
L 1069 2368 
z
" id="CMSS17-74" transform="scale(0.015625)"/>
      <path d="M 2406 1791 
C 2406 2392 1978 2808 1402 2808 
C 1120 2808 813 2757 461 2553 
L 499 2135 
C 659 2248 934 2432 1395 2432 
C 1722 2432 1920 2180 1920 1782 
L 1920 1536 
C 896 1536 256 1238 256 726 
C 256 461 416 -64 947 -64 
C 1043 -64 1562 -64 1933 217 
L 1933 -19 
L 2406 -19 
L 2406 1791 
z
M 1920 816 
C 1920 701 1920 548 1728 434 
C 1562 325 1350 325 1261 325 
C 941 325 723 511 723 744 
C 723 1211 1722 1211 1920 1211 
L 1920 816 
z
" id="CMSS17-61" transform="scale(0.015625)"/>
      <path d="M 2464 2541 
C 2464 2585 2170 2714 2093 2739 
C 1882 2816 1613 2816 1542 2816 
C 710 2816 211 2093 211 1363 
C 211 595 768 -64 1517 -64 
C 1946 -64 2253 76 2502 242 
L 2464 664 
C 2189 453 1869 337 1523 337 
C 1024 337 698 774 698 1369 
C 698 1831 909 2414 1549 2414 
C 1901 2414 2099 2343 2394 2145 
L 2464 2541 
z
" id="CMSS17-63" transform="scale(0.015625)"/>
      <path d="M 2502 1377 
C 2502 1590 2490 2003 2285 2345 
C 2061 2713 1696 2816 1421 2816 
C 755 2816 192 2188 192 1375 
C 192 582 774 -64 1510 -64 
C 1798 -64 2150 19 2470 248 
C 2470 274 2458 414 2451 420 
C 2451 433 2432 630 2432 656 
C 2125 407 1773 325 1517 325 
C 1107 325 666 667 646 1377 
L 2502 1377 
z
M 698 1728 
C 781 2084 1062 2421 1421 2421 
C 1517 2421 1965 2421 2080 1728 
L 698 1728 
z
" id="CMSS17-65" transform="scale(0.015625)"/>
      <path d="M 1664 1216 
L 1664 1585 
L 64 1585 
L 64 1216 
L 1664 1216 
z
" id="CMSS17-2d" transform="scale(0.015625)"/>
      <path d="M 1696 1688 
L 2688 2739 
L 2074 2739 
L 954 1554 
L 954 4416 
L 480 4416 
L 480 0 
L 947 0 
L 947 892 
L 1376 1344 
L 2278 0 
L 2822 0 
L 1696 1688 
z
" id="CMSS17-6b" transform="scale(0.015625)"/>
      <path d="M 2253 1088 
L 2835 1088 
L 2835 1477 
L 2253 1477 
L 2253 4192 
L 1690 4192 
L 166 1477 
L 166 1088 
L 1747 1088 
L 1747 0 
L 2253 0 
L 2253 1088 
z
M 659 1477 
C 1030 2127 1766 3439 1766 3885 
L 1766 1477 
L 659 1477 
z
" id="CMSS17-34" transform="scale(0.015625)"/>
      <path d="M 1651 1357 
C 1830 1541 2099 1764 2285 1987 
C 2464 2204 2701 2511 2701 2957 
C 2701 3657 2227 4288 1421 4288 
C 787 4288 422 3893 250 3274 
L 499 2929 
C 640 3510 838 3880 1338 3880 
C 1888 3880 2195 3433 2195 2942 
C 2195 2355 1747 1901 1408 1563 
C 1030 1187 659 804 301 408 
L 301 0 
L 2701 0 
L 2701 433 
L 1613 433 
C 1536 433 1459 433 1382 433 
L 742 433 
L 742 439 
L 1651 1357 
z
" id="CMSS17-32" transform="scale(0.015625)"/>
      <path d="M 1587 1414 
L 2656 2739 
L 2099 2739 
L 1363 1777 
L 602 2739 
L 32 2739 
L 1139 1414 
L 0 0 
L 563 0 
L 1363 1121 
L 2195 0 
L 2758 0 
L 1587 1414 
z
" id="CMSS17-78" transform="scale(0.015625)"/>
      <path d="M 2317 3968 
L 2848 3968 
C 2925 3968 3002 3968 3078 3968 
L 3878 3968 
L 3878 4376 
L 218 4376 
L 218 3968 
L 1018 3968 
C 1094 3968 1171 3968 1248 3968 
L 1779 3968 
L 1779 -32 
L 2317 -32 
L 2317 3968 
z
" id="CMSS17-54" transform="scale(0.015625)"/>
      <path d="M 2618 1891 
C 2618 2292 2522 2820 1798 2820 
C 1395 2820 1133 2623 947 2407 
L 947 4448 
L 474 4448 
L 474 32 
L 960 32 
L 960 1573 
C 960 1973 1114 2432 1549 2432 
C 2112 2432 2131 2056 2131 1839 
L 2131 32 
L 2618 32 
L 2618 1891 
z
" id="CMSS17-68" transform="scale(0.015625)"/>
      <path d="M 954 1363 
C 954 1965 1395 2368 1958 2368 
L 1958 2789 
C 1549 2789 1165 2585 934 2253 
L 934 2758 
L 480 2758 
L 480 0 
L 954 0 
L 954 1363 
z
" id="CMSS17-72" transform="scale(0.015625)"/>
      <path d="M 2829 1356 
C 2829 2176 2221 2816 1504 2816 
C 768 2816 173 2157 173 1356 
C 173 544 787 -64 1498 -64 
C 2227 -64 2829 563 2829 1356 
z
M 1504 337 
C 1050 337 659 709 659 1408 
C 659 2151 1114 2427 1498 2427 
C 1914 2427 2342 2126 2342 1408 
C 2342 683 1926 337 1504 337 
z
" id="CMSS17-6f" transform="scale(0.015625)"/>
      <path d="M 947 4416 
L 474 4416 
L 474 0 
L 947 0 
L 947 4416 
z
" id="CMSS17-6c" transform="scale(0.015625)"/>
      <path d="M 2611 4416 
L 2138 4416 
L 2138 2438 
C 1939 2603 1613 2756 1254 2756 
C 672 2756 211 2131 211 1347 
C 211 562 666 -64 1235 -64 
C 1677 -64 1971 172 2125 306 
L 2125 -13 
L 2611 -13 
L 2611 4416 
z
M 2125 836 
C 2125 747 2125 653 1926 482 
C 1798 375 1645 325 1498 325 
C 1152 325 698 576 698 1340 
C 698 2134 1210 2368 1562 2368 
C 1798 2368 1990 2254 2125 2065 
L 2125 836 
z
" id="CMSS17-64" transform="scale(0.015625)"/>
      <path d="M 4147 2017 
C 4243 2017 4339 2017 4339 2125 
C 4339 2240 4230 2240 4122 2240 
L 550 2240 
C 442 2240 333 2240 333 2125 
C 333 2017 429 2017 525 2017 
L 4147 2017 
z
M 4122 896 
C 4230 896 4339 896 4339 1011 
C 4339 1119 4243 1119 4147 1119 
L 525 1119 
C 429 1119 333 1119 333 1011 
C 333 896 442 896 550 896 
L 4122 896 
z
" id="CMSS17-3d" transform="scale(0.015625)"/>
      <path d="M 2758 2044 
C 2758 2405 2752 3077 2490 3596 
C 2227 4096 1805 4229 1504 4229 
C 1069 4229 698 3975 506 3570 
C 301 3146 243 2709 243 2044 
C 243 1589 262 1031 493 543 
C 755 5 1197 -128 1498 -128 
C 1894 -128 2278 81 2496 518 
C 2720 974 2758 1474 2758 2044 
z
M 1498 261 
C 1011 261 864 811 819 995 
C 742 1310 730 1614 730 2114 
C 730 2506 730 2948 851 3297 
C 998 3701 1254 3840 1498 3840 
C 1971 3840 2125 3372 2176 3208 
C 2272 2873 2272 2481 2272 2114 
C 2272 1526 2272 261 1498 261 
z
" id="CMSS17-30" transform="scale(0.015625)"/>
      <path d="M 2496 4101 
C 2227 4210 2035 4229 1856 4229 
C 1024 4229 250 3368 250 2006 
C 250 265 986 -128 1510 -128 
C 1798 -128 2086 -39 2362 280 
C 2643 617 2752 898 2752 1389 
C 2752 2179 2362 2880 1779 2880 
C 1357 2880 992 2657 768 2376 
C 832 3258 1254 3840 1862 3840 
C 2029 3840 2246 3816 2496 3710 
L 2496 4101 
z
M 774 1369 
C 774 1420 774 1452 781 1548 
C 781 2045 1069 2491 1536 2491 
C 1837 2491 1990 2332 2106 2135 
C 2240 1886 2246 1650 2246 1388 
C 2246 1140 2246 891 2099 637 
C 1978 439 1818 267 1510 267 
C 902 267 800 1114 774 1369 
z
" id="CMSS17-36" transform="scale(0.015625)"/>
     </defs>
     <use transform="scale(0.996264)" xlink:href="#CMSSBX10-61"/>
     <use transform="translate(52.304195 0)scale(0.996264)" xlink:href="#CMSSBX10-6c"/>
     <use transform="translate(77.764414 0)scale(0.996264)" xlink:href="#CMSSBX10-67"/>
     <use transform="translate(132.559238 0)scale(0.996264)" xlink:href="#CMSSBX10-2d"/>
     <use transform="translate(169.089121 0)scale(0.996264)" xlink:href="#CMSSBX10-74"/>
     <use transform="translate(209.355025 0)scale(0.996264)" xlink:href="#CMSSBX10-34"/>
     <use transform="translate(295.378962 0)scale(0.996264)" xlink:href="#CMSS17-7b"/>
     <use transform="translate(373.451698 0)scale(0.996264)" xlink:href="#CMSS17-2e"/>
     <use transform="translate(399.475903 0)scale(0.996264)" xlink:href="#CMSS17-2e"/>
     <use transform="translate(425.500108 0)scale(0.996264)" xlink:href="#CMSS17-2f"/>
     <use transform="translate(472.343732 0)scale(0.996264)" xlink:href="#CMSS17-69"/>
     <use transform="translate(494.524455 0)scale(0.996264)" xlink:href="#CMSS17-6e"/>
     <use transform="translate(542.729398 0)scale(0.996264)" xlink:href="#CMSS17-73"/>
     <use transform="translate(578.64294 0)scale(0.996264)" xlink:href="#CMSS17-74"/>
     <use transform="translate(612.474507 0)scale(0.996264)" xlink:href="#CMSS17-61"/>
     <use transform="translate(657.396427 0)scale(0.996264)" xlink:href="#CMSS17-6e"/>
     <use transform="translate(705.60137 0)scale(0.996264)" xlink:href="#CMSS17-63"/>
     <use transform="translate(747.240192 0)scale(0.996264)" xlink:href="#CMSS17-65"/>
     <use transform="translate(788.879014 0)scale(0.996264)" xlink:href="#CMSS17-73"/>
     <use transform="translate(824.792556 0)scale(0.996264)" xlink:href="#CMSS17-2f"/>
     <use transform="translate(871.63618 0)scale(0.996264)" xlink:href="#CMSS17-69"/>
     <use transform="translate(893.816903 0)scale(0.996264)" xlink:href="#CMSS17-6e"/>
     <use transform="translate(942.021846 0)scale(0.996264)" xlink:href="#CMSS17-73"/>
     <use transform="translate(977.935388 0)scale(0.996264)" xlink:href="#CMSS17-74"/>
     <use transform="translate(1011.766955 0)scale(0.996264)" xlink:href="#CMSS17-61"/>
     <use transform="translate(1056.688875 0)scale(0.996264)" xlink:href="#CMSS17-6e"/>
     <use transform="translate(1104.893819 0)scale(0.996264)" xlink:href="#CMSS17-63"/>
     <use transform="translate(1146.532641 0)scale(0.996264)" xlink:href="#CMSS17-65"/>
     <use transform="translate(1188.171463 0)scale(0.996264)" xlink:href="#CMSS17-73"/>
     <use transform="translate(1224.085005 0)scale(0.996264)" xlink:href="#CMSS17-2d"/>
     <use transform="translate(1255.314117 0)scale(0.996264)" xlink:href="#CMSS17-74"/>
     <use transform="translate(1289.145684 0)scale(0.996264)" xlink:href="#CMSS17-61"/>
     <use transform="translate(1334.067605 0)scale(0.996264)" xlink:href="#CMSS17-73"/>
     <use transform="translate(1369.981147 0)scale(0.996264)" xlink:href="#CMSS17-6b"/>
     <use transform="translate(1415.583636 0)scale(0.996264)" xlink:href="#CMSS17-34"/>
     <use transform="translate(1462.427259 0)scale(0.996264)" xlink:href="#CMSS17-2f"/>
     <use transform="translate(1509.270883 0)scale(0.996264)" xlink:href="#CMSS17-69"/>
     <use transform="translate(1531.451606 0)scale(0.996264)" xlink:href="#CMSS17-2d"/>
     <use transform="translate(1562.680719 0)scale(0.996264)" xlink:href="#CMSS17-32"/>
     <use transform="translate(1609.524342 0)scale(0.996264)" xlink:href="#CMSS17-2e"/>
     <use transform="translate(1635.548547 0)scale(0.996264)" xlink:href="#CMSS17-74"/>
     <use transform="translate(1669.380114 0)scale(0.996264)" xlink:href="#CMSS17-78"/>
     <use transform="translate(1712.380256 0)scale(0.996264)" xlink:href="#CMSS17-74"/>
     <use transform="translate(1777.440935 0)scale(0.996264)" xlink:href="#CMSS17-7b"/>
     <use transform="translate(1855.513671 0)scale(0.996264)" xlink:href="#CMSS17-54"/>
     <use transform="translate(1919.333125 0)scale(0.996264)" xlink:href="#CMSS17-68"/>
     <use transform="translate(1967.538068 0)scale(0.996264)" xlink:href="#CMSS17-72"/>
     <use transform="translate(1999.447841 0)scale(0.996264)" xlink:href="#CMSS17-65"/>
     <use transform="translate(2041.086663 0)scale(0.996264)" xlink:href="#CMSS17-73"/>
     <use transform="translate(2077.000205 0)scale(0.996264)" xlink:href="#CMSS17-68"/>
     <use transform="translate(2125.205148 0)scale(0.996264)" xlink:href="#CMSS17-6f"/>
     <use transform="translate(2172.048772 0)scale(0.996264)" xlink:href="#CMSS17-6c"/>
     <use transform="translate(2194.229495 0)scale(0.996264)" xlink:href="#CMSS17-64"/>
     <use transform="translate(2242.434438 0)scale(0.996264)" xlink:href="#CMSS17-3d"/>
     <use transform="translate(2315.302373 0)scale(0.996264)" xlink:href="#CMSS17-30"/>
     <use transform="translate(2362.145996 0)scale(0.996264)" xlink:href="#CMSS17-2e"/>
     <use transform="translate(2388.170201 0)scale(0.996264)" xlink:href="#CMSS17-36"/>
    </g>
   </g>
  </g>
 </g>
 <defs>
  <clipPath id="p0a51458a32">
   <rect height="332.64" width="446.4" x="72" y="51.84"/>
  </clipPath>
 </defs>
</svg>
